{"glyphs":{"0":{"ha":848,"x_min":41,"x_max":800,"o":"m 414 -26 q 113 162 208 -26 q 41 540 41 307 q 135 883 41 736 q 435 1055 245 1055 q 713 903 614 1055 q 800 582 800 771 q 703 126 800 278 q 414 -26 607 -26 m 435 924 q 235 795 309 924 q 173 551 173 688 q 233 216 173 328 q 414 104 294 104 q 621 268 558 104 q 664 557 664 382 q 607 832 664 741 q 435 924 549 924 z "},"1":{"ha":625,"x_min":107,"x_max":543,"o":"m 477 -1 l 342 -1 l 208 0 q 142 6 161 0 q 107 58 107 18 q 214 126 107 126 l 246 125 l 274 124 q 268 220 274 157 q 262 316 262 284 q 278 578 262 402 q 292 840 293 751 q 176 770 201 770 q 129 790 149 770 q 109 837 109 810 q 168 914 109 869 q 271 997 204 940 q 385 1057 331 1057 q 431 1005 431 1057 q 427 959 431 989 q 422 912 422 928 q 425 844 422 890 q 427 777 427 799 q 411 546 427 699 q 395 316 395 393 q 400 220 395 277 q 406 128 406 164 l 477 130 q 525 111 506 130 q 543 64 543 92 q 525 18 543 36 q 477 -1 506 -1 z "},"2":{"ha":848,"x_min":111,"x_max":747,"o":"m 684 -1 q 636 9 667 -1 q 589 20 605 20 q 485 16 554 20 q 380 12 416 12 q 302 5 354 12 q 224 -2 250 -2 q 202 1 216 -2 q 180 3 188 3 q 119 49 134 3 q 111 130 111 73 q 197 385 111 288 q 410 547 237 429 q 539 651 507 614 q 597 804 597 716 q 541 881 597 847 q 444 911 492 911 q 326 876 382 911 l 229 800 q 182 777 199 777 q 112 832 112 777 q 138 887 112 864 q 275 995 217 962 q 444 1042 357 1042 q 640 982 554 1042 q 736 810 736 915 q 717 682 736 741 q 657 576 697 624 q 485 439 606 515 q 317 318 357 359 q 243 129 242 240 l 383 142 q 589 150 527 150 q 686 132 640 150 q 747 66 747 109 q 729 19 747 40 q 684 -1 711 -1 z "},"3":{"ha":848,"x_min":99,"x_max":734,"o":"m 410 -31 q 227 12 308 -31 q 103 151 135 61 q 99 174 99 163 q 120 219 99 201 q 168 237 140 237 q 214 212 195 237 l 245 165 q 311 116 270 132 q 410 99 353 99 q 540 145 484 99 q 599 264 599 194 q 524 428 599 367 q 347 492 457 481 q 272 553 272 500 q 331 614 272 593 l 493 654 q 564 700 540 671 q 588 770 587 729 q 542 867 589 830 q 403 905 492 905 q 313 882 357 905 l 237 834 q 201 820 214 820 q 154 841 174 820 q 135 888 135 861 q 239 991 135 941 q 387 1035 329 1035 q 618 970 533 1035 q 710 773 710 901 q 581 563 710 614 q 555 553 570 558 q 690 454 645 520 q 734 289 734 388 q 640 62 734 155 q 410 -31 546 -31 z "},"4":{"ha":848,"x_min":33,"x_max":806,"o":"m 654 296 l 654 45 q 592 -18 654 -18 q 520 81 520 -18 q 522 115 520 93 q 523 146 523 138 l 522 300 l 223 307 q 94 313 130 307 q 33 361 33 323 q 70 439 33 392 l 128 508 l 462 995 q 577 1058 507 1058 q 654 991 654 1058 l 654 428 q 682 429 665 429 q 806 361 806 429 q 755 300 806 313 q 654 296 732 294 m 522 870 q 239 437 341 581 l 522 431 l 522 870 z "},"5":{"ha":848,"x_min":85,"x_max":782,"o":"m 381 -43 q 98 100 189 -43 q 85 138 85 119 q 106 183 85 164 q 154 203 127 203 q 207 173 182 203 q 261 117 243 130 q 381 87 305 87 q 576 177 498 87 q 650 382 650 262 q 617 543 650 481 q 488 621 575 621 q 369 602 415 621 q 295 548 332 586 l 221 467 q 160 437 191 437 q 114 456 133 437 q 95 503 95 475 q 106 623 95 516 q 129 904 129 837 q 117 956 129 928 q 105 998 105 984 q 176 1039 105 1039 q 217 1037 190 1039 q 258 1034 245 1034 q 376 1037 298 1034 q 494 1040 455 1040 q 550 1038 513 1040 q 606 1037 587 1037 q 643 1042 618 1037 q 680 1047 667 1047 q 726 1027 706 1047 q 747 982 747 1008 q 586 906 747 906 q 533 907 565 906 q 494 909 501 909 l 380 907 l 265 903 q 240 677 265 873 q 488 751 333 751 q 715 635 637 751 q 782 382 782 536 q 675 81 782 199 q 381 -43 564 -43 z "},"6":{"ha":848,"x_min":75,"x_max":752,"o":"m 405 -49 q 144 81 228 -49 q 75 365 75 187 q 347 946 75 700 l 411 1010 q 481 1055 458 1055 q 529 1036 509 1055 q 550 990 549 1017 q 481 896 551 966 l 342 761 q 248 593 288 705 q 351 633 307 620 q 424 646 395 646 q 667 562 583 646 q 752 322 752 477 q 661 58 752 160 q 405 -49 565 -49 m 405 508 q 300 488 347 508 q 212 435 283 479 q 208 365 208 399 q 248 167 208 243 q 409 69 300 69 q 568 142 511 69 q 620 322 620 210 q 566 461 620 415 q 405 508 513 508 z "},"7":{"ha":848,"x_min":47,"x_max":823,"o":"m 783 886 l 721 814 q 559 564 633 711 l 435 294 q 378 137 422 264 q 313 -13 343 37 q 258 -45 294 -45 q 211 -26 231 -45 q 190 20 190 -7 q 233 152 190 45 l 386 526 q 593 867 487 747 l 606 882 l 266 888 l 113 892 q 47 958 47 899 q 66 1004 47 986 q 114 1023 85 1023 q 371 1017 199 1023 q 627 1012 542 1012 l 751 1012 q 823 969 823 1012 q 783 886 823 937 z "},"8":{"ha":848,"x_min":80,"x_max":764,"o":"m 416 -37 q 185 26 273 -37 q 83 233 85 96 q 237 531 80 452 q 116 739 116 604 q 209 952 116 867 q 425 1035 298 1034 q 709 753 709 1038 q 677 628 709 672 q 574 553 650 591 q 716 443 675 502 q 764 252 764 374 q 661 35 764 114 q 416 -37 566 -37 m 422 913 q 289 864 335 913 q 248 739 248 818 q 404 604 249 644 q 521 652 486 628 q 577 753 577 690 q 536 883 577 846 q 422 913 500 913 m 410 484 q 267 397 302 434 q 214 239 210 341 q 292 112 216 154 q 416 82 347 82 q 583 138 536 82 q 621 274 621 183 q 552 417 621 363 q 410 484 506 454 z "},"9":{"ha":848,"x_min":76,"x_max":784,"o":"m 532 82 q 373 -6 482 45 q 204 -64 252 -64 q 158 -44 176 -64 q 140 3 140 -24 q 186 64 140 43 l 300 102 q 466 201 405 145 q 577 359 527 256 l 606 417 q 509 377 568 395 q 412 359 449 359 q 190 430 283 359 q 76 677 76 517 q 193 961 76 866 q 454 1042 292 1042 q 678 940 579 1042 q 783 680 783 832 q 720 345 784 507 q 532 82 650 170 m 435 926 q 264 867 321 926 q 206 689 207 808 q 276 534 206 589 q 431 486 338 486 q 545 519 486 486 q 642 586 572 534 q 651 680 651 645 q 579 845 650 764 q 435 926 509 926 z "}," ":{"ha":415,"x_min":0,"x_max":0,"o":""},"!":{"ha":330,"x_min":81,"x_max":225,"o":"m 224 1028 l 224 273 q 164 213 224 213 q 104 273 104 213 q 102 356 104 301 q 100 439 100 412 q 102 733 100 537 q 104 1028 104 930 q 164 1088 104 1088 q 224 1028 224 1088 m 225 16 q 206 -27 225 -9 q 162 -45 186 -45 q 108 -9 135 -45 q 81 52 81 24 q 101 94 81 76 q 145 111 120 111 q 199 76 172 111 q 225 16 225 43 z "},"\"":{"ha":589,"x_min":79,"x_max":466,"o":"m 199 757 q 203 723 199 745 q 206 690 206 701 q 188 649 206 665 q 144 632 170 632 q 79 748 79 632 q 81 882 79 793 q 83 1017 83 972 q 100 1060 83 1043 q 143 1077 117 1077 q 186 1060 170 1077 q 203 1017 203 1043 q 201 887 203 973 q 199 757 199 800 m 466 1014 q 464 983 466 1003 q 462 955 462 964 l 456 690 q 395 629 454 629 q 352 646 370 629 q 335 689 334 663 l 341 958 q 350 1034 342 1012 q 406 1074 364 1074 q 449 1057 432 1074 q 466 1014 466 1040 z "},"#":{"ha":1171,"x_min":22,"x_max":1157,"o":"m 374 391 l 713 391 l 790 673 l 459 673 l 374 391 m 248 391 l 330 673 l 149 673 q 85 741 85 673 q 185 792 85 792 l 364 792 q 418 1006 382 871 q 497 1069 437 1069 q 534 1051 519 1069 q 549 1011 549 1033 q 531 922 549 984 q 496 792 501 814 l 825 792 q 888 1011 848 874 q 955 1069 906 1069 q 1012 1016 1012 1069 q 956 792 1012 970 l 1088 792 q 1157 741 1157 792 q 1080 670 1157 670 q 1049 671 1070 670 q 1017 673 1027 673 l 918 673 l 846 391 l 985 391 q 1055 384 1034 391 q 1090 330 1090 370 q 1031 267 1090 267 l 812 267 l 751 47 q 675 -19 733 -19 q 620 35 620 -19 q 642 151 620 75 q 675 267 673 258 l 336 267 q 265 34 316 188 q 199 -14 245 -14 q 144 39 144 -14 q 160 116 144 66 q 208 267 184 192 l 78 267 q 22 334 22 267 q 45 377 22 361 q 92 391 64 391 l 248 391 z "},"$":{"ha":963,"x_min":105,"x_max":869,"o":"m 436 602 l 436 845 q 301 688 301 794 q 436 602 301 622 m 557 458 l 557 106 q 677 178 629 130 q 730 295 730 232 q 557 458 730 413 m 557 1109 l 557 995 l 559 995 q 708 972 625 995 q 817 898 817 943 q 757 838 817 838 q 662 853 730 838 q 557 867 593 867 l 557 591 q 791 492 707 577 q 869 302 869 414 q 774 77 869 166 q 557 -27 691 -2 l 557 -208 q 539 -251 557 -234 q 496 -269 522 -269 q 436 -209 436 -269 l 436 -36 q 105 136 105 -31 q 161 197 105 197 q 222 172 193 197 q 288 123 266 134 q 436 92 342 96 l 436 476 l 431 476 q 249 528 326 480 q 154 690 154 586 q 241 865 154 783 q 436 975 321 941 l 436 1105 q 454 1149 436 1132 q 498 1167 472 1167 q 557 1109 557 1167 z "},"%":{"ha":1139,"x_min":100,"x_max":1091,"o":"m 300 706 q 151 772 205 706 q 100 929 100 833 q 169 1056 100 996 q 302 1114 235 1114 q 459 1048 401 1114 q 515 886 515 985 q 446 753 515 804 q 300 706 384 706 m 837 996 q 783 888 812 955 l 735 778 l 601 490 l 449 170 q 380 16 428 117 q 330 -20 361 -20 q 289 -4 307 -20 q 271 35 271 12 q 275 58 271 45 q 382 297 309 149 q 496 534 470 471 l 680 941 q 747 1064 716 1031 q 790 1087 768 1087 q 831 1070 813 1087 q 849 1029 849 1053 q 837 996 849 1015 m 854 -13 q 701 42 762 -13 q 637 192 637 100 q 694 358 637 292 q 853 429 754 429 q 1015 377 945 429 q 1091 229 1091 319 q 1025 56 1091 125 q 854 -13 958 -13 m 300 1000 q 242 979 269 1000 q 213 929 213 957 q 235 847 213 875 q 300 820 257 820 q 367 836 337 820 q 401 886 401 855 q 376 971 401 943 q 300 1000 351 1000 m 853 315 q 777 278 804 315 q 751 192 751 244 q 781 123 751 146 q 869 100 810 100 q 950 133 924 100 q 977 229 977 165 q 935 294 977 269 q 853 315 899 315 z "},"&":{"ha":909,"x_min":51,"x_max":860,"o":"m 464 735 q 551 878 551 807 q 540 924 551 909 q 509 939 530 939 q 472 896 496 939 q 447 839 447 853 q 464 735 447 793 m 412 550 q 254 430 296 472 q 172 257 172 348 q 231 136 172 183 q 361 94 286 94 q 598 210 498 94 q 412 550 547 286 m 326 839 q 382 981 326 907 q 509 1061 443 1061 q 630 1006 586 1061 q 671 878 671 957 q 508 617 671 740 q 669 329 560 503 q 689 406 682 366 q 705 492 700 475 q 759 548 722 548 q 804 517 787 548 q 817 461 817 492 q 747 206 817 323 q 860 -5 860 28 q 841 -46 860 -29 q 797 -64 821 -64 q 745 -29 766 -64 l 667 106 q 361 -27 530 -27 q 145 51 235 -27 q 51 257 51 132 q 151 496 51 389 q 361 661 208 559 q 326 839 326 752 z "},"'":{"ha":539,"x_min":193,"x_max":320,"o":"m 313 981 q 317 920 313 960 q 320 860 320 880 q 259 773 320 773 q 205 803 217 773 q 200 867 200 819 q 196 924 200 886 q 193 981 193 962 q 198 1072 193 1048 q 258 1126 212 1126 q 301 1109 283 1126 q 319 1067 319 1093 q 316 1024 319 1053 q 313 981 313 995 z "},"(":{"ha":509,"x_min":77,"x_max":472,"o":"m 472 1026 q 430 957 472 1002 q 368 895 399 926 q 250 650 293 809 q 213 378 213 512 q 369 -127 213 34 q 432 -176 400 -151 q 471 -237 471 -207 q 454 -276 471 -260 q 413 -293 436 -293 q 364 -277 393 -293 q 77 394 77 -117 q 151 766 77 578 q 368 1070 234 976 q 411 1089 395 1089 q 454 1070 435 1089 q 472 1026 472 1050 z "},")":{"ha":509,"x_min":77,"x_max":472,"o":"m 472 394 q 184 -277 472 -117 q 136 -293 157 -293 q 96 -276 113 -293 q 78 -237 78 -260 q 117 -176 78 -207 q 180 -127 149 -151 q 336 378 336 34 q 299 650 336 512 q 181 895 256 809 q 119 957 150 926 q 77 1026 77 1002 q 95 1070 77 1050 q 138 1089 113 1089 q 181 1070 153 1089 q 398 766 315 976 q 472 394 472 578 z "},"*":{"ha":736,"x_min":32,"x_max":653,"o":"m 32 892 q 50 937 32 917 q 92 956 67 956 q 275 890 108 956 q 270 1021 270 985 q 287 1064 270 1047 q 330 1081 304 1081 q 374 1064 357 1081 q 391 1021 391 1047 q 395 906 391 983 q 595 930 558 930 q 636 912 620 930 q 653 869 653 895 q 602 810 653 821 q 435 786 555 800 q 520 694 474 750 q 581 590 581 619 q 562 548 581 566 q 518 530 543 530 q 471 554 492 530 q 336 713 430 610 q 147 555 197 555 q 104 574 123 555 q 85 618 85 593 q 107 663 85 641 q 233 780 151 699 q 71 839 178 798 q 32 892 32 856 z "},"+":{"ha":667,"x_min":33,"x_max":619,"o":"m 619 436 q 603 392 619 411 q 561 374 586 374 q 536 376 553 374 q 511 379 520 379 l 444 378 q 376 378 402 376 l 376 218 q 315 157 376 157 q 270 173 286 157 q 255 218 255 188 l 254 296 l 254 375 q 138 370 172 370 q 33 433 33 370 q 70 488 33 477 q 138 491 83 491 q 254 496 172 491 l 253 575 q 259 661 253 637 q 280 697 266 685 q 317 709 294 709 q 360 693 342 709 q 378 650 378 676 q 376 614 378 639 q 374 576 374 589 l 374 498 l 425 496 q 467 498 439 496 q 508 500 494 500 q 619 436 619 500 z "},",":{"ha":385,"x_min":134,"x_max":338,"o":"m 193 -233 q 152 -215 170 -233 q 134 -173 134 -197 q 176 -56 134 -153 q 233 64 213 28 q 279 96 250 96 q 321 78 304 96 q 338 35 338 59 q 242 -197 338 19 q 193 -233 227 -233 z "},"-":{"ha":578,"x_min":75,"x_max":514,"o":"m 460 322 q 132 313 368 313 q 75 366 75 313 q 132 418 75 418 q 293 423 186 418 q 454 428 400 428 q 514 375 514 428 q 460 322 514 328 z "},".":{"ha":346,"x_min":97,"x_max":265,"o":"m 181 -63 q 121 -39 146 -63 q 97 21 97 -14 q 121 80 97 56 q 181 105 146 105 q 240 80 216 105 q 265 21 265 56 q 240 -39 265 -14 q 181 -63 216 -63 z "},"/":{"ha":711,"x_min":57,"x_max":659,"o":"m 120 -61 q 76 -44 95 -61 q 57 -2 57 -27 q 62 21 57 9 q 261 441 115 167 q 461 862 408 715 q 595 1103 550 1105 q 640 1085 621 1102 q 659 1043 659 1067 q 651 1006 659 1027 l 575 821 q 446 532 530 696 l 298 251 l 175 -21 q 120 -61 157 -61 z "},":":{"ha":415,"x_min":124,"x_max":281,"o":"m 281 153 q 261 103 281 123 q 211 83 241 83 q 161 103 180 83 q 142 153 142 123 q 137 191 142 166 q 133 228 133 216 q 154 275 133 256 q 205 294 176 294 q 281 153 281 294 m 269 648 q 250 598 269 618 q 200 578 231 578 q 150 598 170 578 q 130 648 130 618 q 127 673 130 656 q 124 699 124 690 q 144 747 124 728 q 195 766 165 766 q 269 648 269 766 z "},";":{"ha":415,"x_min":55,"x_max":279,"o":"m 279 644 q 259 595 279 614 q 210 575 239 575 q 160 595 180 575 q 140 644 140 614 q 137 670 140 653 q 134 694 134 686 q 154 743 134 724 q 204 762 175 762 q 279 644 279 762 m 116 -132 q 55 -68 55 -132 q 113 62 55 -24 q 213 152 174 152 q 256 134 237 152 q 275 91 275 115 q 228 11 275 66 q 176 -74 179 -47 q 116 -132 169 -132 z "},"<":{"ha":530,"x_min":13,"x_max":425,"o":"m 202 416 q 296 330 240 389 q 386 241 361 262 q 410 195 410 220 q 392 151 410 170 q 349 132 374 132 q 311 146 330 132 q 195 258 284 165 q 64 354 127 330 q 13 410 13 373 q 60 467 13 444 q 198 576 123 497 q 323 703 303 686 q 363 720 343 720 q 407 701 388 720 q 425 657 425 682 q 405 614 425 634 q 202 416 340 545 z "},"=":{"ha":709,"x_min":67,"x_max":597,"o":"m 220 677 l 536 677 q 597 616 597 677 q 536 556 597 556 l 219 557 q 173 555 203 557 q 127 553 142 553 q 84 571 100 553 q 67 614 67 589 q 124 674 67 663 q 220 677 139 677 m 258 313 q 393 311 303 313 q 527 309 482 309 q 587 249 587 309 q 527 189 587 189 q 393 191 482 189 q 258 193 303 193 q 197 190 238 193 q 137 187 157 187 q 75 248 75 187 q 133 308 75 303 q 258 313 208 313 z "},">":{"ha":530,"x_min":39,"x_max":499,"o":"m 499 450 q 474 401 499 425 q 136 138 313 252 q 100 126 117 126 q 57 145 75 126 q 39 189 39 165 q 66 237 39 216 l 329 437 q 180 560 269 477 q 71 702 71 663 q 90 745 71 726 q 134 763 109 763 q 179 740 159 763 q 459 502 334 567 q 499 450 499 481 z "},"?":{"ha":728,"x_min":35,"x_max":652,"o":"m 252 209 q 203 230 224 209 q 182 279 182 252 q 269 394 182 326 l 431 516 q 518 654 518 591 q 444 799 518 732 q 293 863 373 863 q 184 820 250 863 q 103 776 119 776 q 55 798 75 776 q 35 848 35 821 q 139 955 35 902 q 293 1002 232 1002 q 541 896 429 1002 q 652 654 652 789 q 588 478 652 555 q 447 359 550 432 q 302 237 343 283 q 252 209 279 209 m 214 -49 q 160 -29 184 -49 q 136 20 136 -9 q 159 96 136 62 q 223 134 184 134 q 288 54 288 134 q 271 -14 288 16 q 214 -49 249 -49 z "},"@":{"ha":1293,"x_min":75,"x_max":1189,"o":"m 886 279 q 762 300 814 279 q 677 363 709 321 q 606 309 641 327 q 538 290 571 290 q 396 352 463 290 q 329 486 329 413 q 428 715 329 612 q 652 819 526 819 q 699 798 680 819 q 718 747 718 777 q 650 687 718 707 q 523 628 560 661 q 468 486 468 580 q 486 448 468 467 q 538 429 507 428 q 648 539 597 432 q 728 633 693 633 q 774 612 757 633 q 792 560 792 591 q 788 519 792 547 q 783 479 783 492 q 821 423 783 435 q 886 418 836 418 q 1016 464 979 418 q 1050 599 1050 505 q 916 870 1050 765 q 625 966 794 966 q 315 817 427 966 q 214 483 214 684 q 333 170 214 297 q 650 37 456 37 q 774 58 705 37 l 893 102 q 932 113 923 113 q 980 91 960 113 q 1000 39 1000 68 q 856 -65 1000 -25 q 652 -95 747 -95 q 456 -58 556 -95 q 285 41 356 -21 q 75 483 75 222 q 218 918 75 743 q 625 1105 371 1105 q 1017 968 854 1105 q 1189 599 1189 822 q 1114 364 1189 446 q 886 279 1036 279 z "},"A":{"ha":1016,"x_min":89,"x_max":917,"o":"m 848 -20 q 739 140 785 -20 q 695 353 722 201 q 514 319 626 344 l 334 282 q 218 22 300 193 q 159 -16 196 -16 q 110 4 132 -16 q 89 53 89 24 q 191 300 89 85 q 180 341 180 318 q 246 412 180 396 q 441 745 323 557 q 642 1002 602 1002 q 715 928 695 1002 l 758 700 l 859 229 l 897 121 q 917 48 917 66 q 896 -1 917 19 q 848 -20 875 -20 m 608 755 l 414 442 q 663 493 496 463 l 608 755 z "},"B":{"ha":876,"x_min":130,"x_max":819,"o":"m 601 27 q 211 -33 448 -33 q 156 -5 182 -33 q 130 52 130 22 l 130 249 q 142 526 130 346 q 157 806 155 720 q 164 992 156 869 q 186 1037 169 1026 q 396 1065 279 1065 q 625 984 515 1065 q 752 753 752 890 q 616 478 752 578 q 769 382 718 435 q 819 267 819 329 q 730 108 819 184 q 601 27 669 54 m 396 927 q 292 922 322 927 l 291 804 l 277 541 q 380 534 374 533 q 548 597 483 542 q 618 753 618 658 q 547 872 618 817 q 396 927 475 927 m 472 384 l 400 395 q 373 394 391 395 q 346 393 355 393 q 268 399 309 393 q 264 247 264 314 l 264 106 q 553 157 441 113 q 644 214 601 175 q 686 267 686 249 q 599 338 686 298 q 472 384 534 369 z "},"C":{"ha":837,"x_min":61,"x_max":816,"o":"m 749 761 q 684 812 705 761 q 648 865 665 855 q 578 872 634 872 q 359 722 479 872 q 197 338 197 519 q 253 188 197 251 q 392 123 311 123 q 532 159 462 123 q 653 239 572 179 q 711 267 692 267 q 760 245 741 267 q 780 196 780 223 q 754 142 780 165 q 392 -16 575 -16 q 155 92 252 -16 q 61 338 61 196 q 254 810 61 568 q 578 1011 414 1011 q 637 1008 611 1011 q 684 998 664 1005 q 746 1033 708 1033 q 805 971 793 1033 q 816 836 816 916 q 801 787 816 808 q 749 761 783 761 z "},"D":{"ha":1002,"x_min":124,"x_max":933,"o":"m 730 5 q 428 -67 625 -67 q 315 -52 378 -67 q 199 -4 238 -33 l 193 -4 q 144 16 163 -4 q 124 66 124 37 q 131 279 124 137 q 137 492 137 421 q 134 729 137 572 q 131 966 131 887 q 159 1025 131 994 q 216 1055 188 1055 q 325 1010 233 1055 q 446 954 429 959 q 774 751 638 888 q 933 398 933 591 q 879 176 933 282 q 730 5 824 69 m 587 722 q 268 878 518 768 l 271 683 l 273 488 l 262 118 q 277 109 267 116 q 427 69 336 69 q 652 117 582 69 q 757 237 718 161 q 796 395 796 313 q 587 722 796 586 z "},"E":{"ha":867,"x_min":136,"x_max":863,"o":"m 797 913 q 776 916 787 913 q 555 949 661 949 q 433 939 499 949 q 292 907 368 928 q 298 837 298 863 q 286 578 298 743 l 583 606 q 744 620 714 620 q 794 601 774 620 q 814 550 814 582 q 752 481 814 488 l 591 467 l 277 438 q 273 347 275 390 q 271 267 271 304 q 293 90 271 117 q 399 71 309 71 q 526 74 441 71 q 653 76 610 76 q 693 80 667 76 q 732 85 720 85 q 804 14 804 85 q 747 -54 804 -43 q 471 -67 683 -67 q 201 -12 260 -67 q 136 267 136 49 q 138 361 136 310 q 143 473 140 413 q 136 506 136 488 q 149 547 136 529 q 162 837 162 743 q 155 910 162 862 q 149 984 149 959 q 216 1065 149 1065 q 265 1045 245 1065 q 419 1078 347 1067 q 555 1088 491 1088 q 818 1049 720 1088 q 863 984 863 1031 q 846 936 863 957 q 797 913 826 913 z "},"F":{"ha":843,"x_min":117,"x_max":817,"o":"m 750 891 q 724 897 738 891 q 502 928 640 928 q 397 921 457 928 q 262 901 337 915 l 261 608 q 458 643 392 643 q 674 631 562 643 q 738 562 738 624 q 718 511 738 531 q 669 491 699 491 q 564 497 634 491 q 458 503 493 503 q 258 464 412 503 l 252 -3 q 233 -52 252 -32 q 185 -72 214 -72 q 137 -52 156 -72 q 117 -3 117 -32 q 122 398 117 131 q 127 800 127 666 q 126 889 127 829 q 125 979 125 949 q 144 1029 125 1009 q 193 1050 163 1050 q 233 1038 215 1050 q 384 1060 317 1053 q 502 1067 451 1067 q 680 1044 580 1067 q 817 963 817 1013 q 799 915 817 936 q 750 891 779 891 z "},"G":{"ha":944,"x_min":54,"x_max":919,"o":"m 882 410 q 705 78 840 202 q 387 -47 570 -47 q 137 46 220 -47 q 54 326 54 140 q 137 688 54 502 q 350 989 220 874 q 534 1065 437 1065 q 696 1025 595 1065 q 820 917 820 976 q 800 867 820 889 q 751 846 779 846 q 709 863 736 846 q 534 926 605 926 q 427 873 483 926 q 347 777 399 846 q 191 326 191 569 q 230 148 191 199 q 387 92 273 92 q 598 169 509 92 q 730 401 692 250 q 408 329 542 392 q 377 321 392 321 q 328 345 347 321 q 309 393 309 366 q 345 453 309 431 q 850 543 492 543 q 899 523 880 543 q 919 473 919 503 q 882 410 919 429 z "},"H":{"ha":1067,"x_min":103,"x_max":994,"o":"m 987 956 q 977 872 977 927 q 979 812 977 852 q 980 751 980 772 q 968 549 980 684 q 956 347 956 415 q 964 193 956 296 q 971 37 971 90 q 952 -9 971 9 q 906 -28 934 -28 q 860 -9 879 -28 q 841 37 841 9 q 833 193 841 90 q 826 347 826 296 q 829 448 826 397 q 543 413 713 446 l 258 357 q 245 184 258 296 q 233 10 233 72 q 215 -37 233 -18 q 168 -56 196 -56 q 122 -37 140 -56 q 103 10 103 -18 q 115 225 103 82 q 127 439 127 368 q 124 552 127 477 q 121 665 121 627 q 128 826 121 719 q 135 987 135 934 q 154 1035 135 1016 q 200 1054 172 1054 q 247 1035 228 1054 q 265 987 265 1016 q 258 825 265 933 q 251 663 251 717 l 255 491 l 546 546 q 840 580 720 578 q 847 872 847 677 q 864 977 847 924 q 927 1049 886 1049 q 973 1030 953 1049 q 994 983 994 1012 q 987 956 994 973 z "},"I":{"ha":759,"x_min":51,"x_max":719,"o":"m 649 845 q 540 854 606 845 l 431 868 q 415 491 415 671 q 418 374 415 444 q 420 256 420 304 q 416 140 420 193 l 629 143 q 677 123 658 143 q 696 74 696 103 q 677 24 696 44 q 629 4 658 4 q 515 2 591 4 q 401 1 439 1 q 268 -12 357 1 q 133 -24 178 -24 q 85 -4 104 -24 q 66 45 66 16 q 85 94 66 74 q 133 115 104 115 q 279 129 177 115 q 286 254 286 184 q 281 369 286 301 q 277 482 277 436 q 296 873 277 639 l 208 871 l 119 869 q 71 888 90 869 q 51 939 51 908 q 115 1008 51 1002 q 320 1013 170 1013 q 659 984 455 1013 q 719 911 719 975 q 696 861 719 880 q 649 845 675 845 z "},"J":{"ha":924,"x_min":64,"x_max":879,"o":"m 812 878 q 770 883 800 878 q 724 888 741 888 q 646 886 691 888 l 650 805 q 583 71 650 300 q 426 -81 538 -81 q 192 4 308 -81 q 64 222 64 99 q 132 305 64 305 q 201 223 201 305 q 281 111 201 167 q 426 58 357 58 q 503 399 481 58 q 513 805 513 561 q 510 878 513 824 l 469 878 q 389 879 442 878 q 309 881 336 881 q 258 900 279 881 q 238 951 238 919 q 332 1021 238 1021 q 401 1019 355 1021 q 469 1017 446 1017 q 596 1022 511 1017 q 724 1027 682 1027 q 879 949 879 1027 q 861 901 879 922 q 812 878 841 878 z "},"K":{"ha":848,"x_min":145,"x_max":843,"o":"m 782 -28 q 488 153 679 -28 l 286 357 l 286 348 l 285 -7 q 226 -75 285 -75 q 164 -41 187 -75 q 145 20 145 -13 q 155 494 145 178 q 164 968 164 810 q 183 1018 164 998 q 231 1038 203 1038 q 280 1018 260 1038 q 299 968 299 998 q 291 764 299 903 q 283 558 283 629 q 489 774 374 644 l 684 1000 q 735 1027 707 1027 q 783 1006 762 1027 q 804 957 804 986 q 629 718 804 912 q 380 459 509 586 q 635 214 461 374 l 706 154 q 789 109 745 124 q 843 42 843 92 q 829 -2 843 19 q 782 -28 811 -28 z "},"L":{"ha":765,"x_min":68,"x_max":739,"o":"m 695 28 q 454 -37 618 -8 q 208 -63 303 -63 q 109 -42 139 -63 q 68 62 68 -14 l 82 287 q 100 976 100 597 q 119 1025 100 1005 q 167 1046 138 1046 q 215 1025 196 1046 q 235 976 235 1005 q 216 279 235 593 l 208 176 q 203 76 202 119 q 651 159 380 74 q 673 163 663 163 q 722 140 702 163 q 739 92 739 119 q 695 28 739 48 z "},"M":{"ha":1226,"x_min":76,"x_max":1174,"o":"m 1102 -56 q 1042 -18 1065 -56 q 1005 90 1021 14 l 981 207 q 892 686 953 315 l 757 277 l 717 148 q 666 22 692 71 q 589 -29 637 -29 q 526 14 549 -29 q 499 87 511 43 l 479 162 q 359 675 411 401 l 334 553 l 247 195 q 213 9 241 132 q 146 -44 193 -44 q 93 -20 113 -44 q 76 30 76 0 q 123 308 76 143 l 197 581 l 237 795 q 300 991 267 945 q 367 1030 327 1030 q 433 980 411 1030 q 490 734 459 920 q 602 251 526 511 q 775 795 702 512 l 795 894 q 827 990 808 954 q 900 1040 854 1040 q 989 928 958 1040 q 1015 768 1000 889 q 1115 244 1055 461 l 1148 127 q 1174 12 1174 34 q 1152 -37 1174 -17 q 1102 -56 1130 -56 z "},"N":{"ha":1107,"x_min":83,"x_max":1049,"o":"m 1045 151 q 1034 42 1045 118 q 962 -26 1023 -26 q 873 22 924 -26 q 239 776 597 283 l 236 622 l 234 467 q 236 298 234 411 q 239 129 239 186 q 168 -54 239 -54 q 109 -30 131 -54 q 90 20 90 -9 q 94 106 90 49 q 98 193 98 164 q 101 318 98 235 q 104 444 104 402 q 102 579 104 489 q 100 715 100 670 q 92 842 100 758 q 83 969 83 926 q 110 1026 83 1000 q 171 1052 137 1052 q 260 973 207 1052 q 564 553 429 720 q 916 173 724 354 q 916 259 918 202 l 914 345 q 891 819 914 642 q 873 890 888 836 q 859 962 859 936 q 931 1040 859 1040 q 1049 600 1049 1040 q 1047 375 1049 525 q 1045 151 1045 226 z "},"O":{"ha":1109,"x_min":79,"x_max":1050,"o":"m 544 -41 q 220 73 353 -41 q 79 388 79 195 q 218 814 79 623 q 605 1027 373 1027 q 937 927 828 1027 q 1050 597 1050 823 q 922 174 1050 363 q 544 -41 776 -41 m 605 888 q 323 723 439 888 q 217 388 217 571 q 314 175 217 257 q 544 98 407 98 q 816 264 709 98 q 911 597 911 412 q 839 825 911 760 q 605 888 770 888 z "},"P":{"ha":723,"x_min":68,"x_max":682,"o":"m 280 398 q 197 407 261 398 q 192 48 192 304 q 174 2 192 21 q 130 -16 157 -16 q 85 2 103 -16 q 68 48 68 21 l 68 248 q 80 528 68 347 q 95 809 94 724 l 95 903 q 103 1000 95 970 q 170 1052 119 1060 q 231 1062 191 1059 q 330 1065 271 1065 q 562 981 454 1065 q 682 755 682 887 q 554 488 682 587 q 280 398 440 398 m 314 937 q 261 935 284 937 q 221 931 237 934 l 220 806 l 205 536 l 280 528 q 472 585 394 528 q 557 755 557 648 q 476 886 557 831 q 314 937 401 937 z "},"Q":{"ha":1217,"x_min":52,"x_max":1187,"o":"m 1116 -297 q 956 -181 1086 -297 l 793 -33 q 566 -79 679 -79 q 207 84 362 -79 q 52 452 52 247 q 233 863 52 694 q 650 1027 409 1027 q 1034 838 903 1027 q 1145 416 1145 675 q 926 39 1145 192 l 1074 -98 l 1161 -172 q 1187 -225 1187 -197 q 1166 -275 1187 -253 q 1116 -297 1145 -297 m 650 887 q 330 763 464 887 q 191 452 191 635 q 306 184 191 304 q 566 62 421 62 q 663 73 613 62 q 532 253 532 187 q 554 302 532 283 q 603 322 576 322 q 661 290 635 322 q 812 133 728 202 q 1006 416 1006 245 q 924 743 1006 618 q 650 887 830 887 z "},"R":{"ha":873,"x_min":79,"x_max":833,"o":"m 764 -7 q 715 14 738 -7 q 216 313 491 236 l 222 180 l 225 46 q 206 -4 225 16 q 157 -24 186 -24 q 109 -4 128 -24 q 90 46 90 16 q 84 206 90 100 q 79 366 79 312 q 93 551 79 428 q 106 736 106 675 q 100 839 106 771 q 94 941 94 907 q 115 1009 94 980 q 186 1042 141 1045 l 350 1029 q 507 983 443 1017 q 781 627 781 838 q 688 445 781 524 q 500 348 612 381 q 815 109 711 235 q 833 63 833 87 q 812 14 833 35 q 764 -7 791 -7 m 332 889 l 231 897 l 238 815 q 243 733 243 765 q 234 598 243 679 l 220 463 q 249 463 229 463 q 279 462 269 462 q 538 508 452 462 q 609 563 576 529 q 645 627 645 601 q 538 803 645 722 q 332 889 439 878 z "},"S":{"ha":963,"x_min":90,"x_max":896,"o":"m 91 169 q 110 215 90 197 q 159 233 130 233 q 218 195 193 233 q 279 125 252 144 q 447 87 337 87 q 642 133 552 87 q 758 295 758 191 q 661 430 758 380 q 458 476 578 473 q 275 523 351 480 q 179 680 179 578 q 316 901 179 801 q 587 995 447 995 q 735 972 652 995 q 845 898 845 943 q 784 838 845 838 q 689 853 757 838 q 584 867 621 867 q 404 814 478 865 q 328 688 328 762 q 429 608 328 631 q 573 592 466 600 q 816 494 728 581 q 896 302 896 416 q 747 45 896 141 q 446 -39 617 -39 q 219 9 322 -39 q 91 169 93 67 z "},"T":{"ha":944,"x_min":79,"x_max":992,"o":"m 924 857 q 769 865 873 857 q 614 871 667 872 l 566 871 q 585 568 568 778 q 600 263 600 372 q 604 191 600 239 q 609 119 609 143 q 594 39 609 73 q 535 -5 575 -5 q 486 14 508 -5 q 465 62 465 33 q 468 93 465 73 q 471 123 471 113 q 467 223 471 157 q 463 323 463 290 q 447 596 463 420 q 429 869 431 786 l 367 868 q 134 890 218 868 q 79 957 79 904 q 96 1006 79 985 q 149 1027 117 1029 q 257 1015 172 1026 q 367 1007 325 1007 q 490 1009 408 1007 q 614 1010 573 1010 q 769 1003 666 1010 q 924 996 871 996 q 972 976 953 996 q 992 926 992 956 q 972 877 992 897 q 924 857 953 857 z "},"U":{"ha":1023,"x_min":105,"x_max":942,"o":"m 536 -27 q 221 94 325 -27 q 115 383 137 192 q 105 727 105 469 q 109 880 105 822 q 121 966 113 942 q 182 1016 138 1016 q 245 901 245 1016 l 245 503 q 532 92 245 92 q 803 784 803 92 q 803 850 803 810 q 802 905 802 891 q 817 979 802 947 q 873 1019 836 1019 q 941 926 941 1019 q 942 842 941 899 q 942 758 942 786 q 536 -27 942 -27 z "},"V":{"ha":903,"x_min":98,"x_max":899,"o":"m 886 930 q 817 798 844 867 l 766 649 l 583 156 q 509 -14 551 69 q 448 -54 487 -54 q 374 -1 395 -54 q 192 592 292 205 l 138 779 q 98 963 98 920 q 120 1013 98 994 q 168 1031 140 1031 q 234 976 219 1031 l 259 858 l 324 627 q 451 193 389 375 l 455 203 l 637 696 l 694 862 q 777 1014 733 962 q 829 1041 799 1041 q 878 1020 857 1041 q 899 970 899 1000 q 886 930 899 950 z "},"W":{"ha":1444,"x_min":94,"x_max":1421,"o":"m 965 -65 q 910 -47 934 -65 q 883 3 883 -27 q 844 136 852 85 q 790 429 836 188 q 744 722 755 611 q 614 342 684 498 q 511 61 534 163 q 519 31 519 45 q 492 -20 519 0 q 436 -38 467 -38 q 345 44 345 -38 l 323 130 l 250 463 q 99 945 205 631 q 94 972 94 960 q 165 1035 94 1035 q 233 987 210 1035 q 283 846 245 962 q 363 551 323 724 l 429 251 q 573 661 501 419 q 640 865 617 808 q 759 1015 701 1015 q 826 966 806 1015 q 876 688 850 908 q 922 421 889 577 l 980 155 q 1207 745 1071 373 q 1241 873 1215 766 q 1289 997 1261 953 q 1353 1034 1314 1034 q 1421 966 1421 1034 q 1400 899 1421 955 l 1373 825 l 1335 705 l 1134 215 q 1038 -20 1106 134 q 965 -65 1014 -65 z "},"X":{"ha":1005,"x_min":46,"x_max":954,"o":"m 935 915 q 795 734 844 805 l 711 609 q 618 490 661 538 l 767 272 q 925 60 856 142 q 943 14 943 38 q 923 -36 943 -15 q 873 -57 902 -57 q 825 -36 848 -57 q 721 93 775 12 l 630 233 l 524 385 l 290 115 l 165 -24 q 116 -47 143 -47 q 67 -26 88 -47 q 46 24 46 -5 q 64 70 46 48 l 186 206 l 440 501 q 281 701 366 601 l 203 808 q 115 905 155 871 q 86 960 86 929 q 106 1010 86 988 q 155 1031 125 1031 q 302 909 212 1031 q 387 791 330 867 q 534 606 464 699 l 688 822 q 884 1031 839 1031 q 932 1010 911 1031 q 954 961 954 989 q 935 915 954 937 z "},"Y":{"ha":882,"x_min":20,"x_max":831,"o":"m 795 867 q 751 788 779 842 l 635 500 q 507 216 567 338 l 422 65 l 387 -8 q 326 -47 364 -47 q 278 -28 300 -47 q 256 21 256 -8 q 320 165 256 44 l 404 318 q 246 565 282 475 q 144 749 216 642 q 30 926 47 895 q 20 962 20 944 q 41 1011 20 991 q 90 1031 62 1031 q 145 1000 123 1031 l 199 916 q 294 770 271 809 q 374 616 345 687 q 469 462 396 559 l 625 840 q 698 985 651 887 q 761 1031 717 1031 q 809 1012 788 1031 q 831 963 831 993 q 795 867 831 932 z "},"Z":{"ha":963,"x_min":46,"x_max":937,"o":"m 859 848 l 767 786 q 488 480 644 690 l 250 134 q 216 86 233 108 l 480 96 q 745 104 653 104 q 877 96 834 104 q 934 41 932 85 q 912 -12 935 7 q 861 -29 892 -29 q 802 -27 842 -29 q 743 -24 763 -24 q 434 -30 640 -24 q 124 -35 227 -35 q 46 34 46 -35 q 88 146 46 79 l 161 248 l 406 588 q 687 899 557 788 l 450 885 l 176 885 q 154 884 168 885 q 132 883 139 883 q 60 953 60 883 q 97 1014 60 999 q 171 1023 119 1023 q 310 1014 218 1023 q 450 1004 403 1004 q 606 1010 502 1004 q 763 1017 710 1017 q 937 951 937 1017 q 859 848 937 907 z "},"[":{"ha":523,"x_min":119,"x_max":476,"o":"m 298 -279 q 253 -281 283 -279 q 207 -283 222 -283 q 119 -203 119 -283 q 129 274 119 -79 q 139 751 139 627 l 128 956 l 127 966 q 143 1011 126 991 q 188 1031 161 1031 q 249 1029 208 1031 q 311 1027 290 1027 q 349 1029 323 1027 q 387 1031 374 1031 q 450 965 450 1031 q 393 899 450 905 q 255 897 336 894 q 259 760 259 836 l 250 304 l 239 -150 l 298 -148 q 358 -150 318 -148 q 417 -151 397 -151 q 460 -171 444 -151 q 476 -217 476 -190 q 460 -263 476 -244 q 417 -283 444 -283 q 358 -281 397 -283 q 298 -279 318 -279 z "},"\\":{"ha":764,"x_min":120,"x_max":688,"o":"m 624 -96 q 570 -61 590 -96 q 490 109 544 -18 l 293 614 q 131 932 250 716 q 120 968 120 951 q 140 1014 120 994 q 186 1034 160 1034 q 237 1002 216 1034 q 405 671 315 886 l 544 322 q 680 1 616 138 q 688 -31 688 -16 q 669 -76 688 -57 q 624 -96 650 -96 z "},"]":{"ha":523,"x_min":119,"x_max":476,"o":"m 297 -279 q 343 -281 313 -279 q 389 -283 374 -283 q 476 -203 476 -283 q 466 274 476 -79 q 456 751 456 627 l 467 956 l 468 966 q 452 1011 469 991 q 408 1031 435 1031 q 346 1029 387 1031 q 285 1027 305 1027 q 247 1029 272 1027 q 208 1031 221 1031 q 146 965 146 1031 q 203 899 146 905 q 341 897 260 894 q 336 760 336 836 l 345 304 l 356 -150 l 297 -148 q 238 -150 277 -148 q 178 -151 198 -151 q 136 -171 152 -151 q 119 -217 119 -190 q 136 -263 119 -244 q 178 -283 152 -283 q 238 -281 198 -283 q 297 -279 277 -279 z "},"^":{"ha":807,"x_min":134,"x_max":692,"o":"m 403 1116 q 492 1070 440 1116 q 567 995 509 1056 l 674 880 q 692 838 692 859 q 673 794 692 813 q 630 776 654 776 q 587 795 608 776 q 417 972 533 857 q 196 761 245 761 q 153 780 172 761 q 134 823 134 799 q 155 867 134 847 q 361 1095 193 903 q 403 1116 380 1116 z "},"_":{"ha":871,"x_min":-24,"x_max":897,"o":"m 660 -234 q 515 -231 612 -234 q 371 -227 419 -227 l 69 -227 q 22 -231 54 -227 q -24 -234 -9 -234 l -24 -109 q 180 -107 44 -109 q 383 -106 315 -106 q 527 -110 431 -106 q 670 -114 622 -114 l 897 -109 l 897 -234 l 660 -234 z "},"`":{"ha":772,"x_min":101,"x_max":391,"o":"m 391 859 q 372 817 391 835 q 328 799 353 799 q 279 827 299 799 l 212 928 q 127 1015 176 978 q 101 1063 101 1036 q 119 1107 101 1088 q 161 1126 137 1126 q 298 1014 203 1126 q 391 859 391 903 z "},"a":{"ha":711,"x_min":35,"x_max":687,"o":"m 624 -45 q 577 -15 611 -45 q 532 35 547 13 q 417 -19 467 -1 q 334 -37 368 -37 q 103 53 176 -37 q 35 311 35 137 q 148 591 35 475 q 417 708 260 708 q 549 677 476 708 q 642 586 642 640 q 628 553 642 568 q 617 469 621 528 q 613 317 614 410 q 625 184 612 233 q 667 65 631 155 q 683 29 672 53 l 687 18 q 668 -27 687 -9 q 624 -45 649 -45 m 483 427 q 487 490 483 456 q 498 563 490 524 q 455 582 473 576 q 426 588 437 588 q 244 502 321 588 q 168 304 168 416 q 208 138 168 193 q 326 82 247 82 q 436 106 391 82 q 505 157 460 119 q 483 427 483 337 z "},"b":{"ha":824,"x_min":104,"x_max":759,"o":"m 411 -28 q 222 12 307 -28 q 170 -20 201 -20 q 126 -2 144 -20 q 108 43 108 16 q 110 95 108 60 q 111 147 111 130 q 107 362 111 219 q 104 578 104 506 q 104 765 104 627 q 105 954 105 903 q 122 1027 105 994 q 184 1068 144 1068 q 235 1009 235 1068 q 231 981 235 1000 q 228 954 228 963 l 226 805 l 224 632 q 337 692 283 672 q 437 712 390 712 q 673 600 583 712 q 759 342 759 495 q 659 79 759 187 q 411 -28 559 -28 m 437 584 q 323 553 381 584 q 225 486 294 537 l 224 368 l 224 262 l 225 151 q 317 113 258 136 q 411 100 359 100 q 572 170 509 100 q 635 342 635 239 q 585 511 635 443 q 437 584 530 584 z "},"c":{"ha":713,"x_min":71,"x_max":657,"o":"m 401 -43 q 169 41 262 -43 q 71 274 71 130 q 163 558 71 412 q 392 721 264 721 q 541 690 458 721 q 644 592 644 650 q 627 546 644 566 q 585 526 610 526 q 551 538 566 526 q 523 562 536 550 q 392 593 483 593 q 255 470 323 593 q 193 274 193 357 q 254 133 193 184 q 401 85 311 85 q 488 106 441 85 l 566 149 q 595 159 587 159 q 639 139 621 159 q 657 94 657 119 q 553 -2 657 44 q 401 -43 461 -43 z "},"d":{"ha":816,"x_min":70,"x_max":746,"o":"m 719 599 q 711 399 711 499 q 732 58 711 174 q 733 43 733 49 q 714 -2 733 16 q 670 -20 695 -20 q 608 41 628 -20 q 507 -13 559 5 q 397 -31 454 -31 q 165 62 257 -31 q 70 308 70 158 q 166 598 70 489 q 415 707 262 707 q 536 683 494 707 l 600 636 q 623 1021 610 922 q 684 1081 631 1081 q 746 1015 746 1081 q 719 599 746 921 m 418 581 q 247 514 304 581 q 190 311 190 446 q 252 160 190 223 q 397 97 314 97 q 494 118 454 97 q 569 174 517 130 q 589 195 579 183 l 587 313 l 587 391 l 589 471 q 520 554 563 526 q 418 581 477 581 z "},"e":{"ha":761,"x_min":59,"x_max":734,"o":"m 411 -31 q 163 45 258 -31 q 59 283 59 130 q 144 578 59 459 q 393 709 237 709 q 576 671 505 709 q 664 527 664 624 q 587 404 664 459 q 444 328 553 379 l 184 205 q 279 120 222 149 q 411 92 336 92 q 521 109 458 92 q 624 168 601 132 q 673 204 647 204 q 716 186 697 204 q 734 144 734 168 q 613 15 734 69 q 411 -31 509 -31 m 393 587 q 255 523 310 587 q 173 330 200 458 l 381 429 q 556 532 504 488 q 393 587 498 587 z "},"f":{"ha":706,"x_min":51,"x_max":638,"o":"m 550 954 q 366 726 386 954 l 364 684 q 513 692 479 692 q 621 624 621 692 q 568 565 621 574 q 514 562 545 561 q 358 553 484 563 l 353 398 q 355 272 353 356 q 358 146 358 188 q 343 -54 358 18 q 280 -109 332 -109 q 233 -91 252 -109 q 213 -45 213 -73 q 214 -32 213 -40 q 229 160 229 56 l 227 345 l 227 542 q 119 535 142 535 q 51 601 51 535 q 170 671 51 668 l 235 673 q 245 777 237 711 q 321 998 262 927 q 541 1084 391 1084 q 638 1019 638 1084 q 550 954 638 954 z "},"g":{"ha":737,"x_min":39,"x_max":685,"o":"m 652 292 l 637 64 q 609 -157 633 -71 q 511 -319 578 -267 q 276 -382 430 -382 q 125 -370 186 -382 q 39 -300 39 -353 q 98 -239 39 -239 q 180 -251 123 -239 q 306 -262 237 -263 q 486 -136 436 -260 q 520 119 518 -53 q 433 17 484 51 q 317 -17 382 -17 q 118 67 195 -17 q 41 284 41 151 q 146 579 41 467 q 441 694 254 694 q 547 678 505 694 q 612 629 590 662 q 685 549 685 627 q 671 420 685 500 q 652 292 655 326 m 435 586 q 235 497 306 586 q 172 294 172 417 q 210 146 172 195 q 321 96 247 96 q 454 174 390 96 q 521 315 513 245 q 551 545 535 388 q 495 576 524 566 q 435 586 466 586 z "},"h":{"ha":802,"x_min":98,"x_max":731,"o":"m 662 -42 q 599 9 614 -42 q 570 168 583 65 q 558 329 558 266 q 560 382 558 347 q 562 436 562 418 q 498 564 562 564 q 344 486 412 564 q 249 333 309 446 q 227 27 249 75 q 168 -15 208 -15 q 119 4 140 -15 q 98 50 98 23 q 104 80 98 60 q 112 179 110 97 l 114 279 l 116 778 q 121 891 121 862 q 114 957 121 926 q 108 1021 108 987 q 127 1068 108 1049 q 176 1086 147 1086 q 241 1027 231 1086 q 252 908 252 961 q 247 760 252 837 q 243 611 243 686 l 244 551 q 363 663 300 626 q 498 700 427 700 q 652 627 610 700 q 686 453 682 575 l 692 323 l 705 182 q 728 43 715 103 q 731 23 731 31 q 711 -23 731 -5 q 662 -42 690 -42 z "},"i":{"ha":389,"x_min":121,"x_max":303,"o":"m 224 859 q 168 882 191 859 q 144 937 144 905 q 168 993 144 970 q 224 1016 191 1016 q 280 993 256 1016 q 303 937 303 970 q 280 882 303 905 q 224 859 256 859 m 254 308 q 257 186 254 267 q 259 64 259 105 q 241 16 259 35 q 193 -3 222 -3 q 145 16 163 -3 q 126 64 126 35 q 124 186 126 105 q 121 308 121 267 q 128 467 121 372 q 135 626 135 562 q 154 675 135 656 q 201 694 172 694 q 249 675 231 694 q 268 626 268 656 q 261 467 268 562 q 254 308 254 372 z "},"j":{"ha":560,"x_min":-12,"x_max":445,"o":"m 317 858 q 261 881 284 858 q 237 936 237 904 q 261 991 237 968 q 317 1015 284 1015 q 373 991 349 1015 q 397 936 397 968 q 373 881 397 904 q 317 858 349 858 m 311 -157 q 288 249 312 -78 l 265 623 q 284 683 265 656 q 334 709 304 709 q 380 692 357 709 q 404 658 403 675 l 427 267 l 445 -151 q 389 -321 445 -245 q 240 -405 328 -405 q -4 -180 94 -405 q -12 -148 -12 -162 q 9 -101 -12 -121 q 58 -81 31 -81 q 141 -170 98 -81 q 179 -236 152 -193 q 240 -270 205 -270 q 291 -225 270 -270 q 311 -157 307 -191 z "},"k":{"ha":750,"x_min":111,"x_max":730,"o":"m 659 -28 q 602 12 622 -28 q 495 174 566 80 l 375 337 q 253 250 336 306 q 245 45 245 144 q 227 -5 245 14 q 179 -24 208 -24 q 111 68 111 -24 q 118 237 111 125 q 126 406 126 349 q 129 641 126 509 q 132 876 132 774 q 129 947 132 906 q 126 1019 126 989 q 145 1069 126 1050 q 193 1088 163 1088 q 240 1069 222 1088 q 259 1019 259 1050 q 262 946 259 988 q 266 872 266 903 l 261 654 q 259 418 258 536 q 437 572 351 488 l 586 726 q 634 749 608 749 q 682 728 661 749 q 703 680 703 707 q 684 634 703 656 q 478 425 600 536 l 626 223 q 730 39 730 81 q 708 -8 730 12 q 659 -28 687 -28 z "},"l":{"ha":380,"x_min":118,"x_max":273,"o":"m 267 533 l 256 196 q 251 39 256 142 q 184 -29 244 -29 q 118 40 118 -29 q 125 287 118 122 q 133 533 133 451 q 136 778 133 640 q 140 1023 140 916 q 206 1091 140 1091 q 273 1023 273 1091 q 270 778 273 916 q 267 533 267 640 z "},"m":{"ha":1079,"x_min":82,"x_max":1025,"o":"m 956 -56 q 890 3 900 -56 q 866 213 878 77 l 843 423 q 820 515 836 470 q 770 576 797 576 q 676 533 745 576 q 591 470 611 494 q 594 342 590 406 l 614 161 q 627 -16 627 54 q 609 -65 627 -45 q 561 -84 590 -84 q 513 -65 532 -84 q 494 -16 494 -45 q 478 227 494 66 q 461 469 461 387 q 441 581 461 541 q 345 511 393 559 l 264 421 q 230 378 254 405 q 222 258 230 338 q 215 141 215 179 q 221 84 215 121 q 228 31 228 47 q 207 -16 228 3 q 159 -35 186 -35 q 82 140 82 -35 q 90 261 82 180 q 97 382 97 342 q 91 490 97 418 q 84 599 84 562 q 153 753 84 753 q 202 730 180 753 q 224 680 224 707 q 220 640 224 667 q 217 598 217 612 l 218 527 q 322 658 254 600 q 439 717 391 717 q 585 611 545 717 q 674 685 623 661 q 792 710 726 710 q 947 588 905 710 q 975 397 955 564 q 1023 9 994 281 q 1005 -37 1025 -18 q 956 -56 985 -56 z "},"n":{"ha":727,"x_min":84,"x_max":682,"o":"m 614 -48 q 549 16 556 -48 l 530 164 q 520 313 520 243 q 523 377 520 332 q 525 441 525 422 q 471 588 525 588 q 326 498 395 588 q 228 290 263 416 q 222 224 227 264 q 218 158 218 190 q 222 97 218 138 q 226 36 226 56 q 207 -14 226 5 q 159 -33 189 -33 q 111 -14 130 -33 q 93 36 93 5 q 89 97 93 56 q 84 158 84 138 q 94 352 84 228 q 104 545 104 475 q 101 610 104 567 q 99 674 99 652 q 118 722 99 703 q 166 741 138 741 q 235 652 229 741 l 237 573 q 471 725 351 725 q 622 629 579 725 q 654 441 651 566 l 654 372 l 653 309 q 668 164 653 253 q 682 19 682 75 q 663 -30 682 -11 q 614 -48 644 -48 z "},"o":{"ha":730,"x_min":52,"x_max":659,"o":"m 349 -40 q 153 44 235 -40 q 56 296 61 138 q 134 566 52 449 q 398 703 229 703 q 604 579 534 703 q 657 338 659 479 q 578 81 655 187 q 349 -40 492 -40 m 389 566 q 234 471 290 566 q 190 296 190 394 q 243 142 190 197 q 349 97 288 97 q 470 149 419 97 q 531 302 528 205 q 389 566 541 565 z "},"p":{"ha":743,"x_min":81,"x_max":684,"o":"m 382 -24 q 233 -2 315 -24 l 232 -326 q 213 -375 232 -356 q 165 -394 195 -394 q 118 -375 136 -394 q 99 -326 99 -356 l 101 -55 l 101 216 q 91 486 99 364 l 81 624 q 98 705 81 672 q 157 745 119 745 q 202 727 184 745 q 220 681 220 708 q 218 659 220 675 q 213 620 214 637 q 326 680 271 660 q 429 700 380 700 q 633 576 568 700 q 684 318 684 479 q 605 77 684 172 q 382 -24 522 -24 m 429 564 q 317 536 367 564 q 226 465 281 517 q 235 141 235 311 q 382 113 309 113 q 512 176 467 113 q 551 318 551 231 q 520 503 551 441 q 429 564 490 564 z "},"q":{"ha":722,"x_min":41,"x_max":640,"o":"m 616 214 l 585 -47 q 568 -309 568 -192 q 550 -358 568 -339 q 502 -377 532 -377 q 435 -309 439 -377 q 439 -233 433 -279 l 448 -158 l 460 -8 q 378 -24 402 -24 q 139 53 231 -24 q 41 280 41 135 q 153 599 41 479 q 465 721 267 722 q 521 692 502 721 q 572 718 550 718 q 620 696 600 718 q 640 646 640 674 q 616 214 640 446 m 416 604 q 228 477 292 581 q 176 277 176 392 q 225 147 176 197 q 374 94 279 92 q 468 164 438 96 q 503 422 500 240 l 512 604 q 465 602 498 599 q 416 604 427 606 z "},"r":{"ha":667,"x_min":94,"x_max":623,"o":"m 622 501 q 554 416 617 416 q 496 484 496 416 q 494 531 496 496 l 492 588 q 320 528 385 575 q 220 395 260 484 l 221 23 q 154 -45 221 -45 q 94 23 94 -45 l 94 499 q 96 566 94 522 q 98 633 98 611 q 157 702 98 702 q 224 589 224 702 q 513 715 355 715 q 595 673 568 715 q 623 549 623 632 q 622 501 623 513 z "},"s":{"ha":676,"x_min":28,"x_max":618,"o":"m 552 522 q 500 547 515 522 q 482 621 490 565 q 326 573 431 608 q 216 466 216 530 q 256 455 236 458 q 488 378 412 427 q 598 172 598 307 q 503 5 598 62 q 302 -41 423 -41 q 132 -11 213 -41 q 28 95 28 27 q 49 142 28 122 q 98 163 71 163 q 152 130 119 163 q 225 104 168 115 q 302 96 271 96 q 402 110 359 96 q 465 172 465 130 q 336 297 465 264 l 266 313 q 138 359 176 332 q 83 473 83 397 q 216 675 83 615 q 347 719 257 694 q 475 762 436 745 q 535 774 503 774 q 583 755 564 774 q 602 706 602 736 q 610 648 602 686 q 618 591 618 610 q 600 541 618 560 q 552 522 581 522 z "},"t":{"ha":654,"x_min":44,"x_max":614,"o":"m 548 578 q 514 579 534 578 q 481 581 495 581 q 389 570 465 581 l 401 170 l 402 140 l 403 105 q 332 -43 406 -43 q 284 -26 304 -43 q 264 18 264 -8 q 267 96 264 44 q 269 173 269 147 l 255 569 q 104 581 205 571 q 44 648 44 589 q 62 697 44 677 q 109 717 81 717 l 252 705 q 249 798 252 740 q 245 882 245 856 q 265 929 245 910 q 313 947 285 947 q 385 848 374 947 q 387 787 387 823 l 385 748 l 385 706 q 481 717 469 717 q 573 710 551 717 q 614 646 614 696 q 596 597 614 616 q 548 578 577 578 z "},"u":{"ha":722,"x_min":74,"x_max":661,"o":"m 648 396 q 648 250 648 347 q 649 103 649 152 q 651 58 649 88 q 654 12 654 27 q 634 -36 654 -17 q 586 -54 614 -54 q 519 10 534 -54 q 324 -34 435 -34 q 177 5 235 -34 q 100 132 113 49 q 74 452 74 312 q 94 664 74 545 q 159 723 104 723 q 208 704 188 723 q 227 656 227 686 q 217 557 227 625 q 208 452 208 488 q 215 258 208 339 q 237 129 222 178 q 281 110 260 117 q 324 104 303 104 q 516 133 415 104 l 515 271 l 514 402 q 527 656 514 549 q 593 719 534 719 q 642 700 622 719 q 660 652 661 681 l 648 396 z "},"v":{"ha":675,"x_min":42,"x_max":658,"o":"m 407 35 q 345 -27 405 -27 q 273 31 296 -27 l 170 307 l 49 618 q 42 649 42 635 q 63 696 42 677 q 112 716 84 716 q 170 675 153 716 l 342 201 q 471 515 393 309 q 528 669 489 570 q 588 712 549 712 q 637 692 616 712 q 658 646 658 673 q 546 355 658 620 l 407 35 z "},"w":{"ha":950,"x_min":52,"x_max":913,"o":"m 906 607 q 768 107 853 386 q 705 -20 749 45 q 640 -55 681 -56 q 525 129 566 -54 q 497 288 511 187 l 475 439 l 419 309 l 316 29 q 290 -10 307 3 q 225 -51 270 -50 q 125 151 174 -53 q 77 436 101 256 l 60 538 q 52 640 52 599 q 72 687 52 669 q 120 706 92 706 q 184 650 172 706 q 198 551 193 610 l 208 451 l 248 146 q 404 628 323 355 q 482 703 427 703 q 555 619 536 703 q 599 375 572 540 q 647 109 626 204 l 696 293 l 784 663 q 842 704 794 704 q 892 685 871 704 q 913 638 913 665 q 906 607 913 635 z "},"x":{"ha":820,"x_min":41,"x_max":781,"o":"m 718 582 l 618 489 l 498 369 l 719 80 q 736 37 736 58 q 715 -9 736 11 q 669 -30 695 -30 q 623 -5 644 -30 q 403 275 560 68 l 271 138 q 154 26 231 102 q 107 2 132 2 q 61 22 81 2 q 41 69 41 43 q 58 112 41 90 q 117 172 77 137 q 179 229 164 214 l 323 380 l 235 509 q 141 621 181 585 q 115 671 115 644 q 135 719 115 698 q 179 740 154 740 q 300 635 219 740 l 417 473 l 550 595 q 662 718 633 673 q 713 749 684 749 q 760 730 740 749 q 781 684 781 710 q 718 582 781 647 z "},"y":{"ha":723,"x_min":-3,"x_max":694,"o":"m 686 605 l 451 98 q 318 -212 364 -87 l 273 -344 q 212 -393 256 -393 q 163 -374 184 -393 q 142 -328 142 -355 q 289 65 142 -260 l 46 532 l 16 582 q -3 634 -3 613 q 19 683 -3 662 q 66 704 40 704 q 115 680 98 704 q 362 224 230 520 l 463 458 q 567 667 517 580 q 624 705 589 705 q 673 686 652 705 q 694 639 694 666 q 686 605 694 624 z "},"z":{"ha":747,"x_min":83,"x_max":705,"o":"m 654 549 q 499 338 593 476 q 339 112 390 178 q 463 115 410 115 q 542 105 490 115 q 621 95 594 95 q 669 76 650 95 q 688 26 688 56 q 669 -23 688 -4 q 621 -42 650 -42 q 542 -32 594 -42 q 463 -22 490 -22 q 174 -50 311 -22 q 149 -52 159 -52 q 83 5 83 -52 q 117 71 83 39 q 502 569 294 231 q 371 564 412 564 q 165 579 271 564 q 104 646 104 588 q 123 696 104 676 q 169 716 141 716 q 269 708 202 716 q 371 701 336 701 q 509 707 417 701 q 648 713 602 713 q 705 666 705 713 q 654 549 705 611 z "},"{":{"ha":509,"x_min":4,"x_max":473,"o":"m 176 389 q 242 460 213 407 q 270 552 270 511 q 266 690 270 581 q 261 829 261 800 q 356 972 261 962 q 425 979 379 973 q 473 1027 473 990 q 433 1084 473 1062 q 363 1102 401 1102 q 273 1082 320 1102 q 138 809 138 1023 l 142 674 l 144 539 l 144 520 q 60 464 110 511 q 4 377 4 412 q 68 301 4 347 q 132 199 132 255 q 127 144 132 181 q 121 88 121 106 q 178 -136 121 -32 q 355 -260 245 -260 q 426 -252 405 -260 q 460 -195 460 -238 q 426 -139 460 -151 q 355 -134 410 -134 q 275 -42 308 -134 q 248 88 248 31 q 254 155 248 111 q 259 222 259 200 q 229 310 259 254 q 176 389 203 358 z "},"|":{"ha":585,"x_min":239,"x_max":360,"o":"m 302 1163 q 360 1103 360 1163 l 360 -166 q 301 -245 359 -245 q 247 -194 261 -245 q 239 17 239 -167 l 239 1103 q 257 1146 239 1129 q 302 1163 275 1163 z "},"}":{"ha":509,"x_min":4,"x_max":473,"o":"m 301 389 q 235 460 264 407 q 207 552 207 511 q 211 690 207 581 q 216 829 216 800 q 121 972 216 962 q 52 979 98 973 q 4 1027 4 990 q 43 1084 4 1062 q 114 1102 76 1102 q 203 1082 157 1102 q 338 809 338 1023 l 335 674 l 333 539 l 333 520 q 417 464 367 511 q 473 377 473 412 q 408 301 473 347 q 344 199 344 255 q 350 144 344 181 q 355 88 355 106 q 299 -136 355 -32 q 122 -260 231 -260 q 51 -252 72 -260 q 16 -195 16 -238 q 51 -139 16 -151 q 122 -134 66 -134 q 202 -42 169 -134 q 229 88 229 31 q 223 155 229 111 q 218 222 218 200 q 248 310 218 254 q 301 389 274 358 z "},"~":{"ha":830,"x_min":68,"x_max":775,"o":"m 317 633 q 424 585 376 633 l 498 495 q 591 441 543 445 q 645 522 619 439 q 713 606 671 606 q 757 589 739 606 q 774 547 774 572 q 720 388 775 457 q 589 317 665 317 q 452 368 514 317 q 368 462 416 397 q 317 513 331 513 q 183 385 258 513 q 131 350 163 350 q 87 367 106 350 q 68 409 68 385 q 75 437 68 422 q 170 570 111 517 q 317 633 240 633 z "},"Ä":{"ha":1016,"x_min":89,"x_max":917,"o":"m 848 -20 q 739 140 785 -20 q 695 353 722 201 q 514 319 626 344 l 334 282 q 218 22 300 193 q 159 -16 196 -16 q 110 4 132 -16 q 89 53 89 24 q 191 300 89 85 q 180 341 180 318 q 246 412 180 396 q 441 745 323 557 q 642 1002 602 1002 q 715 928 695 1002 l 758 700 l 859 229 l 897 121 q 917 48 917 66 q 896 -1 917 19 q 848 -20 875 -20 m 608 755 l 414 442 q 663 493 496 463 l 608 755 m 476 1236 q 565 1164 565 1236 q 535 1125 565 1144 q 484 1108 508 1108 q 401 1178 401 1108 q 426 1217 401 1198 q 476 1236 452 1236 m 842 1241 q 888 1220 865 1241 q 912 1178 912 1198 q 815 1116 912 1116 q 766 1130 787 1116 q 741 1173 741 1146 q 772 1233 741 1219 q 842 1241 789 1241 z "},"Å":{"ha":1016,"x_min":89,"x_max":917,"o":"m 848 -20 q 739 140 785 -20 q 695 353 722 201 q 514 319 626 344 l 334 282 q 218 22 300 193 q 159 -16 196 -16 q 110 4 132 -16 q 89 53 89 24 q 191 300 89 85 q 180 341 180 318 q 246 412 180 396 q 441 745 323 557 q 642 1002 602 1002 q 715 928 695 1002 l 758 700 l 859 229 l 897 121 q 917 48 917 66 q 896 -1 917 19 q 848 -20 875 -20 m 608 755 l 414 442 q 663 493 496 463 l 608 755 m 654 1069 q 740 1085 713 1071 q 785 1175 785 1109 q 749 1236 785 1214 q 676 1256 718 1256 q 532 1147 529 1256 q 573 1092 532 1116 q 654 1069 614 1067 m 430 1147 q 500 1303 430 1246 q 676 1357 567 1357 q 821 1310 761 1357 q 887 1175 887 1257 q 826 1023 887 1074 q 644 969 766 971 q 491 1021 552 968 q 430 1147 430 1073 z "},"Ç":{"ha":837,"x_min":61,"x_max":816,"o":"m 537 -96 q 442 -249 537 -208 q 250 -276 379 -276 q 162 -223 162 -276 q 212 -172 162 -172 q 250 -174 224 -172 q 288 -175 275 -175 q 435 -96 435 -175 q 363 -22 435 -50 l 254 16 q 110 153 158 72 q 61 338 61 233 q 254 810 61 567 q 578 1011 414 1011 q 637 1008 610 1011 q 684 998 664 1005 q 746 1033 708 1033 q 809 954 794 1033 q 816 836 816 920 q 798 784 816 805 q 749 761 779 761 q 684 812 706 761 q 646 865 663 857 q 578 872 633 872 q 359 722 479 872 q 197 338 197 519 q 252 190 197 254 q 392 123 309 123 q 534 160 461 123 q 641 229 570 179 q 711 267 693 267 q 760 245 739 267 q 780 196 780 224 q 666 75 780 144 q 500 -1 572 18 q 537 -96 537 -47 z "},"É":{"ha":867,"x_min":136,"x_max":863,"o":"m 797 913 q 776 916 787 913 q 555 949 661 949 q 433 939 499 949 q 292 907 368 928 q 298 837 298 863 q 286 578 298 743 l 583 606 q 744 620 714 620 q 794 601 774 620 q 814 550 814 582 q 752 481 814 488 l 591 467 l 277 438 q 273 347 275 390 q 271 267 271 304 q 293 90 271 117 q 399 71 309 71 q 526 74 441 71 q 653 76 610 76 q 693 80 667 76 q 732 85 720 85 q 804 14 804 85 q 747 -54 804 -43 q 471 -67 683 -67 q 201 -12 260 -67 q 136 267 136 49 q 138 361 136 310 q 143 473 140 413 q 136 506 136 488 q 149 547 136 529 q 162 837 162 743 q 155 910 162 862 q 149 984 149 959 q 216 1065 149 1065 q 265 1045 245 1065 q 419 1078 347 1067 q 555 1088 491 1088 q 818 1049 720 1088 q 863 984 863 1031 q 846 936 863 957 q 797 913 826 913 m 507 1196 q 464 1215 482 1196 q 445 1259 445 1234 q 466 1303 445 1282 q 555 1411 495 1331 q 654 1508 600 1469 q 690 1520 673 1520 q 733 1501 715 1520 q 751 1457 751 1482 q 726 1410 751 1430 q 634 1312 678 1372 q 547 1213 588 1248 q 507 1196 528 1196 z "},"Ñ":{"ha":1107,"x_min":83,"x_max":1049,"o":"m 1045 151 q 1034 42 1045 118 q 962 -26 1023 -26 q 873 22 924 -26 q 239 776 597 283 l 236 622 l 234 467 q 236 298 234 411 q 239 129 239 186 q 168 -54 239 -54 q 109 -30 131 -54 q 90 20 90 -9 q 94 106 90 49 q 98 193 98 164 q 101 318 98 235 q 104 444 104 402 q 102 579 104 489 q 100 715 100 670 q 92 842 100 758 q 83 969 83 926 q 110 1026 83 1000 q 171 1052 137 1052 q 260 973 207 1052 q 564 553 429 720 q 916 173 724 354 q 916 259 918 202 l 914 345 q 891 819 914 642 q 873 890 888 836 q 859 962 859 936 q 931 1040 859 1040 q 1049 600 1049 1040 q 1047 375 1049 525 q 1045 151 1045 226 m 444 1373 q 553 1333 512 1373 l 610 1261 q 686 1222 642 1222 q 743 1247 724 1222 l 774 1307 l 788 1347 q 829 1367 798 1367 q 880 1316 880 1367 q 850 1234 880 1292 q 804 1160 823 1180 q 707 1121 766 1121 q 568 1160 618 1121 q 508 1232 549 1174 q 444 1271 479 1271 q 407 1263 423 1271 q 378 1240 390 1255 l 348 1182 q 304 1152 331 1152 q 267 1165 283 1152 q 252 1200 252 1179 q 254 1216 252 1208 q 322 1328 273 1285 q 444 1373 375 1373 z "},"Ö":{"ha":1109,"x_min":79,"x_max":1050,"o":"m 544 -41 q 220 73 353 -41 q 79 388 79 195 q 218 814 79 623 q 605 1027 373 1027 q 937 927 828 1027 q 1050 597 1050 823 q 922 174 1050 363 q 544 -41 776 -41 m 605 888 q 323 723 439 888 q 217 388 217 571 q 314 175 217 257 q 544 98 407 98 q 816 264 709 98 q 911 597 911 412 q 839 825 911 760 q 605 888 770 888 m 463 1253 q 551 1182 551 1253 q 522 1143 551 1162 q 471 1126 494 1126 q 387 1196 387 1126 q 413 1234 387 1215 q 463 1253 438 1253 m 828 1259 q 875 1237 851 1259 q 899 1196 899 1216 q 802 1133 899 1133 q 752 1147 774 1133 q 728 1190 728 1164 q 758 1251 728 1237 q 828 1259 775 1259 z "},"Ü":{"ha":1023,"x_min":105,"x_max":942,"o":"m 536 -27 q 221 94 325 -27 q 115 383 137 192 q 105 727 105 469 q 109 880 105 822 q 121 966 113 942 q 182 1016 138 1016 q 245 901 245 1016 l 245 503 q 532 92 245 92 q 803 784 803 92 q 803 850 803 810 q 802 905 802 891 q 817 979 802 947 q 873 1019 836 1019 q 941 926 941 1019 q 942 842 941 899 q 942 758 942 786 q 536 -27 942 -27 m 387 1238 q 476 1166 476 1238 q 446 1127 476 1146 q 395 1110 419 1110 q 312 1180 312 1110 q 337 1219 312 1200 q 387 1238 363 1238 m 753 1243 q 800 1222 776 1243 q 823 1180 823 1200 q 726 1118 823 1118 q 677 1132 699 1118 q 652 1175 652 1148 q 683 1235 652 1221 q 753 1243 700 1243 z "},"á":{"ha":711,"x_min":45,"x_max":697,"o":"m 634 -45 q 587 -15 621 -45 q 542 35 557 13 q 427 -19 477 -1 q 345 -37 378 -37 q 113 53 186 -37 q 45 311 45 137 q 158 591 45 475 q 427 708 271 708 q 559 677 486 708 q 652 586 652 640 q 638 553 652 568 q 628 469 631 528 q 623 317 624 410 q 635 184 623 233 q 677 65 642 155 q 693 29 682 53 l 697 18 q 678 -27 697 -9 q 634 -45 659 -45 m 493 427 q 497 490 493 456 q 508 563 500 524 q 465 582 483 576 q 436 588 447 588 q 255 502 331 588 q 178 304 178 416 q 218 138 178 193 q 336 82 257 82 q 446 106 401 82 q 515 157 471 119 q 493 427 493 337 m 395 805 q 352 824 371 805 q 334 867 334 843 q 355 911 334 890 q 444 1019 384 940 q 543 1116 488 1078 q 579 1129 562 1129 q 622 1110 604 1129 q 640 1066 640 1090 q 614 1019 640 1039 q 523 920 567 981 q 435 822 477 857 q 395 805 416 805 z "},"à":{"ha":711,"x_min":45,"x_max":697,"o":"m 634 -45 q 587 -15 621 -45 q 542 35 557 13 q 427 -19 477 -1 q 345 -37 378 -37 q 113 53 186 -37 q 45 311 45 137 q 158 591 45 475 q 427 708 271 708 q 559 677 486 708 q 652 586 652 640 q 638 553 652 568 q 628 469 631 528 q 623 317 624 410 q 635 184 623 233 q 677 65 642 155 q 693 29 682 53 l 697 18 q 678 -27 697 -9 q 634 -45 659 -45 m 493 427 q 497 490 493 456 q 508 563 500 524 q 465 582 483 576 q 436 588 447 588 q 255 502 331 588 q 178 304 178 416 q 218 138 178 193 q 336 82 257 82 q 446 106 401 82 q 515 157 471 119 q 493 427 493 337 m 507 854 q 488 812 507 830 q 444 794 469 794 q 395 823 415 794 l 328 924 q 243 1010 292 973 q 217 1059 217 1031 q 235 1102 217 1083 q 277 1122 253 1122 q 414 1009 319 1122 q 507 854 507 898 z "},"â":{"ha":711,"x_min":45,"x_max":697,"o":"m 634 -45 q 587 -15 621 -45 q 542 35 557 13 q 427 -19 477 -1 q 345 -37 378 -37 q 113 53 186 -37 q 45 311 45 137 q 158 591 45 475 q 427 708 271 708 q 559 677 486 708 q 652 586 652 640 q 638 553 652 568 q 628 469 631 528 q 623 317 624 410 q 635 184 623 233 q 677 65 642 155 q 693 29 682 53 l 697 18 q 678 -27 697 -9 q 634 -45 659 -45 m 493 427 q 497 490 493 456 q 508 563 500 524 q 465 582 483 576 q 436 588 447 588 q 255 502 331 588 q 178 304 178 416 q 218 138 178 193 q 336 82 257 82 q 446 106 401 82 q 515 157 471 119 q 493 427 493 337 m 379 1152 q 469 1106 416 1152 q 543 1030 485 1092 l 650 915 q 668 873 668 895 q 649 830 668 849 q 606 812 631 812 q 563 831 583 812 q 393 1008 509 892 q 172 796 221 796 q 129 815 148 796 q 111 859 111 834 q 131 903 111 882 q 338 1131 169 939 q 379 1152 356 1152 z "},"ä":{"ha":711,"x_min":45,"x_max":697,"o":"m 634 -45 q 587 -15 621 -45 q 542 35 557 13 q 427 -19 477 -1 q 345 -37 378 -37 q 113 53 186 -37 q 45 311 45 137 q 158 591 45 475 q 427 708 271 708 q 559 677 486 708 q 652 586 652 640 q 638 553 652 568 q 628 469 631 528 q 623 317 624 410 q 635 184 623 233 q 677 65 642 155 q 693 29 682 53 l 697 18 q 678 -27 697 -9 q 634 -45 659 -45 m 493 427 q 497 490 493 456 q 508 563 500 524 q 465 582 483 576 q 436 588 447 588 q 255 502 331 588 q 178 304 178 416 q 218 138 178 193 q 336 82 257 82 q 446 106 401 82 q 515 157 471 119 q 493 427 493 337 m 234 930 q 323 859 323 930 q 293 820 323 839 q 242 803 266 803 q 159 873 159 803 q 184 911 159 892 q 234 930 210 930 m 600 936 q 646 915 623 936 q 670 873 670 893 q 573 810 670 810 q 524 825 545 810 q 499 867 499 841 q 530 928 499 914 q 600 936 547 936 z "},"ã":{"ha":711,"x_min":45,"x_max":724,"o":"m 634 -45 q 587 -15 621 -45 q 542 35 557 13 q 427 -19 477 -1 q 345 -37 378 -37 q 113 53 186 -37 q 45 311 45 137 q 158 591 45 475 q 427 708 271 708 q 559 677 486 708 q 652 586 652 640 q 638 553 652 568 q 628 469 631 528 q 623 317 624 410 q 635 184 623 233 q 677 65 642 155 q 693 29 682 53 l 697 18 q 678 -27 697 -9 q 634 -45 659 -45 m 493 427 q 497 490 493 456 q 508 563 500 524 q 465 582 483 576 q 436 588 447 588 q 255 502 331 588 q 178 304 178 416 q 218 138 178 193 q 336 82 257 82 q 446 106 401 82 q 515 157 471 119 q 493 427 493 337 m 288 1040 q 397 1001 356 1040 l 454 929 q 530 890 486 890 q 587 915 568 890 l 618 975 l 632 1015 q 673 1034 642 1034 q 724 984 724 1034 q 694 902 724 960 q 648 827 667 848 q 551 789 610 789 q 412 827 462 789 q 352 900 393 842 q 288 939 323 939 q 251 931 267 939 q 222 907 234 923 l 192 850 q 148 819 175 819 q 111 833 127 819 q 96 868 96 847 q 98 884 96 876 q 166 996 117 953 q 288 1040 219 1040 z "},"å":{"ha":711,"x_min":45,"x_max":697,"o":"m 634 -45 q 587 -15 621 -45 q 542 35 557 13 q 427 -19 477 -1 q 345 -37 378 -37 q 113 53 186 -37 q 45 311 45 137 q 158 591 45 475 q 427 708 271 708 q 559 677 486 708 q 652 586 652 640 q 638 553 652 568 q 628 469 631 528 q 623 317 624 410 q 635 184 623 233 q 677 65 642 155 q 693 29 682 53 l 697 18 q 678 -27 697 -9 q 634 -45 659 -45 m 493 427 q 497 490 493 456 q 508 563 500 524 q 465 582 483 576 q 436 588 447 588 q 255 502 331 588 q 178 304 178 416 q 218 138 178 193 q 336 82 257 82 q 446 106 401 82 q 515 157 471 119 q 493 427 493 337 m 414 904 q 499 920 472 906 q 545 1010 545 945 q 508 1072 545 1049 q 435 1091 477 1091 q 291 983 288 1091 q 332 927 292 951 q 414 904 373 903 m 189 983 q 259 1138 189 1081 q 435 1192 326 1192 q 581 1145 520 1192 q 646 1010 646 1093 q 586 858 646 909 q 404 804 525 806 q 250 856 311 803 q 189 983 189 908 z "},"ç":{"ha":713,"x_min":71,"x_max":657,"o":"m 522 -133 q 481 -259 522 -217 q 358 -302 440 -302 q 249 -280 300 -302 q 184 -202 184 -252 q 230 -165 184 -165 q 285 -182 254 -165 q 351 -199 316 -199 q 400 -182 384 -198 q 416 -136 416 -167 q 391 -78 416 -104 q 314 -33 366 -52 q 141 71 206 -8 q 71 274 71 154 q 163 558 71 412 q 392 721 264 721 q 541 690 458 721 q 644 592 644 650 q 627 546 644 566 q 585 526 610 526 q 551 538 566 526 q 523 562 536 550 q 392 593 483 593 q 255 470 323 593 q 193 274 193 357 q 254 133 193 184 q 401 85 311 85 q 488 106 441 85 l 566 149 q 595 159 587 159 q 639 139 621 159 q 657 94 657 119 q 484 -27 657 24 q 513 -79 503 -53 q 522 -133 522 -106 z "},"é":{"ha":761,"x_min":59,"x_max":734,"o":"m 411 -31 q 163 45 258 -31 q 59 283 59 130 q 144 578 59 459 q 393 709 237 709 q 576 671 505 709 q 664 527 664 624 q 587 404 664 459 q 444 328 553 379 l 184 205 q 279 120 222 149 q 411 92 336 92 q 521 109 458 92 q 624 168 601 132 q 673 204 647 204 q 716 186 697 204 q 734 144 734 168 q 613 15 734 69 q 411 -31 509 -31 m 393 587 q 255 523 310 587 q 173 330 200 458 l 381 429 q 556 532 504 488 q 393 587 498 587 m 404 805 q 360 824 379 805 q 342 867 342 843 q 363 911 342 890 q 452 1019 392 940 q 551 1116 496 1078 q 587 1129 570 1129 q 630 1110 612 1129 q 648 1066 648 1090 q 623 1019 648 1039 q 531 920 575 981 q 444 822 485 857 q 404 805 425 805 z "},"è":{"ha":761,"x_min":59,"x_max":734,"o":"m 411 -31 q 163 45 258 -31 q 59 283 59 130 q 144 578 59 459 q 393 709 237 709 q 576 671 505 709 q 664 527 664 624 q 587 404 664 459 q 444 328 553 379 l 184 205 q 279 120 222 149 q 411 92 336 92 q 521 109 458 92 q 624 168 601 132 q 673 204 647 204 q 716 186 697 204 q 734 144 734 168 q 613 15 734 69 q 411 -31 509 -31 m 393 587 q 255 523 310 587 q 173 330 200 458 l 381 429 q 556 532 504 488 q 393 587 498 587 m 498 859 q 479 817 498 835 q 435 799 460 799 q 387 827 406 799 l 319 928 q 235 1015 283 978 q 208 1063 208 1036 q 226 1107 208 1088 q 269 1126 244 1126 q 406 1014 311 1126 q 498 859 498 903 z "},"ê":{"ha":761,"x_min":59,"x_max":734,"o":"m 411 -31 q 163 45 258 -31 q 59 283 59 130 q 144 578 59 459 q 393 709 237 709 q 576 671 505 709 q 664 527 664 624 q 587 404 664 459 q 444 328 553 379 l 184 205 q 279 120 222 149 q 411 92 336 92 q 521 109 458 92 q 624 168 601 132 q 673 204 647 204 q 716 186 697 204 q 734 144 734 168 q 613 15 734 69 q 411 -31 509 -31 m 393 587 q 255 523 310 587 q 173 330 200 458 l 381 429 q 556 532 504 488 q 393 587 498 587 m 397 1146 q 486 1101 434 1146 q 560 1025 503 1086 l 668 909 q 686 868 686 889 q 667 825 686 844 q 623 806 648 806 q 581 826 601 806 q 411 1002 526 887 q 190 791 239 791 q 147 810 165 791 q 128 853 128 829 q 149 897 128 877 q 355 1125 186 934 q 397 1146 374 1146 z "},"ë":{"ha":761,"x_min":59,"x_max":734,"o":"m 411 -31 q 163 45 258 -31 q 59 283 59 130 q 144 578 59 459 q 393 709 237 709 q 576 671 505 709 q 664 527 664 624 q 587 404 664 459 q 444 328 553 379 l 184 205 q 279 120 222 149 q 411 92 336 92 q 521 109 458 92 q 624 168 601 132 q 673 204 647 204 q 716 186 697 204 q 734 144 734 168 q 613 15 734 69 q 411 -31 509 -31 m 393 587 q 255 523 310 587 q 173 330 200 458 l 381 429 q 556 532 504 488 q 393 587 498 587 m 256 996 q 345 925 345 996 q 315 886 345 905 q 264 869 288 869 q 181 939 181 869 q 207 977 181 958 q 256 996 232 996 m 622 1002 q 669 980 645 1002 q 692 939 692 959 q 595 876 692 876 q 546 890 568 876 q 522 933 522 907 q 552 994 522 980 q 622 1002 569 1002 z "},"í":{"ha":389,"x_min":65,"x_max":372,"o":"m 254 308 q 257 186 254 267 q 259 64 259 105 q 241 16 259 35 q 193 -3 222 -3 q 145 16 163 -3 q 126 64 126 35 q 124 186 126 105 q 121 308 121 267 q 128 467 121 372 q 135 626 135 562 q 154 675 135 656 q 201 694 172 694 q 249 675 231 694 q 268 626 268 656 q 261 467 268 562 q 254 308 254 372 m 127 805 q 84 824 102 805 q 65 867 65 843 q 86 911 65 890 q 175 1019 115 940 q 275 1116 220 1078 q 311 1129 293 1129 q 353 1110 335 1129 q 372 1066 372 1090 q 346 1019 372 1039 q 254 920 298 981 q 167 822 208 857 q 127 805 148 805 z "},"ì":{"ha":389,"x_min":17,"x_max":307,"o":"m 254 308 q 257 186 254 267 q 259 64 259 105 q 241 16 259 35 q 193 -3 222 -3 q 145 16 163 -3 q 126 64 126 35 q 124 186 126 105 q 121 308 121 267 q 128 467 121 372 q 135 626 135 562 q 154 675 135 656 q 201 694 172 694 q 249 675 231 694 q 268 626 268 656 q 261 467 268 562 q 254 308 254 372 m 307 859 q 288 817 307 835 q 244 799 269 799 q 195 827 215 799 l 127 928 q 43 1015 92 978 q 17 1063 17 1036 q 35 1107 17 1088 q 77 1126 53 1126 q 214 1014 119 1126 q 307 859 307 903 z "},"î":{"ha":389,"x_min":-96,"x_max":461,"o":"m 254 308 q 257 186 254 267 q 259 64 259 105 q 241 16 259 35 q 193 -3 222 -3 q 145 16 163 -3 q 126 64 126 35 q 124 186 126 105 q 121 308 121 267 q 128 467 121 372 q 135 626 135 562 q 154 675 135 656 q 201 694 172 694 q 249 675 231 694 q 268 626 268 656 q 261 467 268 562 q 254 308 254 372 m 172 1112 q 262 1067 210 1112 q 336 991 278 1053 l 444 876 q 461 834 461 855 q 443 791 461 810 q 399 772 424 772 q 356 792 376 772 q 186 968 302 853 q -35 757 14 757 q -78 776 -59 757 q -96 819 -96 795 q -76 863 -96 843 q 131 1091 -38 900 q 172 1112 149 1112 z "},"ï":{"ha":389,"x_min":-83,"x_max":429,"o":"m 254 308 q 257 186 254 267 q 259 64 259 105 q 241 16 259 35 q 193 -3 222 -3 q 145 16 163 -3 q 126 64 126 35 q 124 186 126 105 q 121 308 121 267 q 128 467 121 372 q 135 626 135 562 q 154 675 135 656 q 201 694 172 694 q 249 675 231 694 q 268 626 268 656 q 261 467 268 562 q 254 308 254 372 m -7 930 q 81 859 81 930 q 52 820 81 839 q 1 803 24 803 q -83 873 -83 803 q -57 911 -83 892 q -7 930 -32 930 m 358 936 q 405 915 381 936 q 429 873 429 893 q 332 810 429 810 q 282 825 304 810 q 258 867 258 841 q 288 928 258 914 q 358 936 305 936 z "},"ñ":{"ha":727,"x_min":84,"x_max":728,"o":"m 614 -48 q 549 16 556 -48 l 530 164 q 520 313 520 243 q 523 377 520 332 q 525 441 525 422 q 471 588 525 588 q 326 498 395 588 q 228 290 263 416 q 222 224 227 264 q 218 158 218 190 q 222 97 218 138 q 226 36 226 56 q 207 -14 226 5 q 159 -33 189 -33 q 111 -14 130 -33 q 93 36 93 5 q 89 97 93 56 q 84 158 84 138 q 94 352 84 228 q 104 545 104 475 q 101 610 104 567 q 99 674 99 652 q 118 722 99 703 q 166 741 138 741 q 235 652 229 741 l 237 573 q 471 725 351 725 q 622 629 579 725 q 654 441 651 566 l 654 372 l 653 309 q 668 164 653 253 q 682 19 682 75 q 663 -30 682 -11 q 614 -48 644 -48 m 293 1054 q 402 1015 361 1054 l 458 943 q 534 903 490 903 q 592 928 573 903 l 623 988 l 637 1028 q 677 1048 646 1048 q 728 998 728 1048 q 699 916 728 973 q 652 841 672 861 q 555 802 614 802 q 416 841 467 802 q 357 913 398 855 q 293 952 328 952 q 255 944 272 952 q 227 921 239 937 l 197 863 q 153 833 180 833 q 116 847 132 833 q 100 882 100 861 q 102 897 100 889 q 171 1009 121 966 q 293 1054 224 1054 z "},"ó":{"ha":730,"x_min":56,"x_max":663,"o":"m 353 -40 q 157 44 239 -40 q 60 296 65 138 q 138 566 56 449 q 402 703 233 703 q 608 579 538 703 q 661 338 663 479 q 583 81 659 187 q 353 -40 496 -40 m 393 566 q 238 471 294 566 q 194 296 194 394 q 248 142 194 197 q 353 97 292 97 q 474 149 423 97 q 535 302 532 205 q 393 566 545 565 m 395 805 q 352 824 370 805 q 333 867 333 843 q 354 911 333 890 q 443 1019 383 940 q 543 1116 488 1078 q 578 1129 561 1129 q 621 1110 603 1129 q 640 1066 640 1090 q 614 1019 640 1039 q 522 920 566 981 q 435 822 476 857 q 395 805 416 805 z "},"ò":{"ha":730,"x_min":56,"x_max":663,"o":"m 353 -40 q 157 44 239 -40 q 60 296 65 138 q 138 566 56 449 q 402 703 233 703 q 608 579 538 703 q 661 338 663 479 q 583 81 659 187 q 353 -40 496 -40 m 393 566 q 238 471 294 566 q 194 296 194 394 q 248 142 194 197 q 353 97 292 97 q 474 149 423 97 q 535 302 532 205 q 393 566 545 565 m 548 859 q 529 817 548 835 q 485 799 509 799 q 436 827 456 799 l 368 928 q 284 1015 332 978 q 258 1063 258 1036 q 276 1107 258 1088 q 318 1126 294 1126 q 455 1014 360 1126 q 548 859 548 903 z "},"ô":{"ha":730,"x_min":56,"x_max":674,"o":"m 353 -40 q 157 44 239 -40 q 60 296 65 138 q 138 566 56 449 q 402 703 233 703 q 608 579 538 703 q 661 338 663 479 q 583 81 659 187 q 353 -40 496 -40 m 393 566 q 238 471 294 566 q 194 296 194 394 q 248 142 194 197 q 353 97 292 97 q 474 149 423 97 q 535 302 532 205 q 393 566 545 565 m 385 1146 q 475 1101 422 1146 q 549 1025 491 1086 l 656 909 q 674 868 674 889 q 655 825 674 844 q 612 806 637 806 q 569 826 589 806 q 399 1002 515 887 q 178 791 227 791 q 135 810 154 791 q 117 853 117 829 q 137 897 117 877 q 344 1125 175 934 q 385 1146 362 1146 z "},"ö":{"ha":730,"x_min":56,"x_max":691,"o":"m 353 -40 q 157 44 239 -40 q 60 296 65 138 q 138 566 56 449 q 402 703 233 703 q 608 579 538 703 q 661 338 663 479 q 583 81 659 187 q 353 -40 496 -40 m 393 566 q 238 471 294 566 q 194 296 194 394 q 248 142 194 197 q 353 97 292 97 q 474 149 423 97 q 535 302 532 205 q 393 566 545 565 m 255 930 q 344 859 344 930 q 314 820 344 839 q 263 803 287 803 q 180 873 180 803 q 205 911 180 892 q 255 930 231 930 m 621 936 q 667 915 644 936 q 691 873 691 893 q 594 810 691 810 q 545 825 566 810 q 520 867 520 841 q 551 928 520 914 q 621 936 568 936 z "},"õ":{"ha":730,"x_min":56,"x_max":741,"o":"m 353 -40 q 157 44 239 -40 q 60 296 65 138 q 138 566 56 449 q 402 703 233 703 q 608 579 538 703 q 661 338 663 479 q 583 81 659 187 q 353 -40 496 -40 m 393 566 q 238 471 294 566 q 194 296 194 394 q 248 142 194 197 q 353 97 292 97 q 474 149 423 97 q 535 302 532 205 q 393 566 545 565 m 306 1054 q 415 1015 374 1054 l 471 943 q 547 903 503 903 q 605 928 586 903 l 636 988 l 650 1028 q 690 1048 659 1048 q 741 998 741 1048 q 712 916 741 973 q 665 841 685 861 q 568 802 627 802 q 429 841 479 802 q 370 913 411 855 q 306 952 341 952 q 268 944 285 952 q 239 921 252 937 l 210 863 q 165 833 193 833 q 129 847 144 833 q 113 882 113 861 q 115 897 113 889 q 184 1009 134 966 q 306 1054 237 1054 z "},"ú":{"ha":722,"x_min":74,"x_max":661,"o":"m 648 396 q 648 250 648 347 q 649 103 649 152 q 651 58 649 88 q 654 12 654 27 q 634 -36 654 -17 q 586 -54 614 -54 q 519 10 534 -54 q 324 -34 435 -34 q 177 5 235 -34 q 100 132 113 49 q 74 452 74 312 q 94 664 74 545 q 159 723 104 723 q 208 704 188 723 q 227 656 227 686 q 217 557 227 625 q 208 452 208 488 q 215 258 208 339 q 237 129 222 178 q 281 110 260 117 q 324 104 303 104 q 516 133 415 104 l 515 271 l 514 402 q 527 656 514 549 q 593 719 534 719 q 642 700 622 719 q 660 652 661 681 l 648 396 m 387 805 q 343 824 362 805 q 325 867 325 843 q 346 911 325 890 q 435 1019 375 940 q 534 1116 479 1078 q 570 1129 553 1129 q 613 1110 595 1129 q 631 1066 631 1090 q 606 1019 631 1039 q 514 920 558 981 q 427 822 468 857 q 387 805 408 805 z "},"ù":{"ha":722,"x_min":74,"x_max":661,"o":"m 648 396 q 648 250 648 347 q 649 103 649 152 q 651 58 649 88 q 654 12 654 27 q 634 -36 654 -17 q 586 -54 614 -54 q 519 10 534 -54 q 324 -34 435 -34 q 177 5 235 -34 q 100 132 113 49 q 74 452 74 312 q 94 664 74 545 q 159 723 104 723 q 208 704 188 723 q 227 656 227 686 q 217 557 227 625 q 208 452 208 488 q 215 258 208 339 q 237 129 222 178 q 281 110 260 117 q 324 104 303 104 q 516 133 415 104 l 515 271 l 514 402 q 527 656 514 549 q 593 719 534 719 q 642 700 622 719 q 660 652 661 681 l 648 396 m 519 865 q 500 822 519 840 q 456 804 481 804 q 408 833 427 804 l 340 934 q 256 1021 304 983 q 229 1069 229 1041 q 247 1113 229 1093 q 290 1132 265 1132 q 427 1019 332 1132 q 519 865 519 908 z "},"û":{"ha":722,"x_min":74,"x_max":661,"o":"m 648 396 q 648 250 648 347 q 649 103 649 152 q 651 58 649 88 q 654 12 654 27 q 634 -36 654 -17 q 586 -54 614 -54 q 519 10 534 -54 q 324 -34 435 -34 q 177 5 235 -34 q 100 132 113 49 q 74 452 74 312 q 94 664 74 545 q 159 723 104 723 q 208 704 188 723 q 227 656 227 686 q 217 557 227 625 q 208 452 208 488 q 215 258 208 339 q 237 129 222 178 q 281 110 260 117 q 324 104 303 104 q 516 133 415 104 l 515 271 l 514 402 q 527 656 514 549 q 593 719 534 719 q 642 700 622 719 q 660 652 661 681 l 648 396 m 353 1146 q 442 1101 390 1146 q 516 1025 458 1086 l 624 909 q 642 868 642 889 q 623 825 642 844 q 579 806 604 806 q 536 826 557 806 q 367 1002 482 887 q 146 791 195 791 q 103 810 121 791 q 84 853 84 829 q 104 897 84 877 q 311 1125 142 934 q 353 1146 330 1146 z "},"ü":{"ha":722,"x_min":74,"x_max":661,"o":"m 648 396 q 648 250 648 347 q 649 103 649 152 q 651 58 649 88 q 654 12 654 27 q 634 -36 654 -17 q 586 -54 614 -54 q 519 10 534 -54 q 324 -34 435 -34 q 177 5 235 -34 q 100 132 113 49 q 74 452 74 312 q 94 664 74 545 q 159 723 104 723 q 208 704 188 723 q 227 656 227 686 q 217 557 227 625 q 208 452 208 488 q 215 258 208 339 q 237 129 222 178 q 281 110 260 117 q 324 104 303 104 q 516 133 415 104 l 515 271 l 514 402 q 527 656 514 549 q 593 719 534 719 q 642 700 622 719 q 660 652 661 681 l 648 396 m 224 993 q 313 922 313 993 q 283 882 313 901 q 233 865 256 865 q 149 935 149 865 q 175 974 149 955 q 224 993 200 993 m 590 998 q 637 977 613 998 q 661 935 661 956 q 564 873 661 873 q 514 887 536 873 q 490 930 490 903 q 520 990 490 977 q 590 998 537 998 z "},"†":{"ha":829,"x_min":35,"x_max":785,"o":"m 452 -74 q 433 -122 452 -103 q 385 -141 414 -141 q 317 -74 319 -141 l 317 317 l 326 667 l 233 665 q 111 669 134 665 q 35 739 35 683 q 53 787 35 767 q 100 807 72 807 q 165 804 121 807 q 232 800 210 800 l 332 802 l 340 1083 q 359 1132 340 1113 q 407 1151 378 1151 q 455 1132 437 1151 q 474 1083 474 1113 l 466 798 q 571 795 534 795 q 646 801 596 795 q 720 807 696 807 q 766 787 748 807 q 785 739 785 766 q 703 667 785 683 q 576 661 669 661 l 460 664 l 454 313 l 452 -74 z "},"°":{"ha":568,"x_min":46,"x_max":519,"o":"m 280 1139 q 452 1068 385 1139 q 519 889 519 998 q 441 725 519 793 q 268 661 367 661 q 102 734 164 661 q 46 905 46 803 q 117 1075 46 1006 q 280 1139 186 1139 m 148 905 q 176 808 148 848 q 268 762 210 762 q 370 797 325 762 q 418 889 418 835 q 381 997 418 956 q 280 1038 343 1038 q 190 1002 229 1038 q 148 905 148 962 z "},"¢":{"ha":865,"x_min":131,"x_max":802,"o":"m 797 413 q 492 186 708 191 l 492 148 q 430 22 492 22 q 373 81 373 22 q 376 206 373 140 q 178 349 233 254 q 131 592 131 432 q 213 838 131 720 q 416 991 295 956 q 419 1134 415 1039 q 471 1180 425 1180 q 512 1163 494 1180 q 530 1122 530 1146 l 529 1002 q 667 955 604 994 q 738 1000 688 1000 q 781 956 781 1000 q 760 854 781 919 q 708 779 735 779 q 677 796 696 779 q 610 854 625 844 q 527 887 572 882 q 513 593 524 770 l 494 300 q 620 351 575 304 l 694 460 q 743 492 718 492 q 784 476 766 492 q 802 437 802 460 q 797 413 802 426 m 243 592 q 264 428 243 475 q 381 326 292 366 l 414 869 q 293 753 342 833 q 243 592 243 673 z "},"£":{"ha":1102,"x_min":25,"x_max":989,"o":"m 159 604 l 208 604 q 206 642 206 623 q 302 952 206 827 q 598 1092 409 1092 q 798 1045 707 1092 q 907 890 907 988 q 888 848 907 865 q 844 831 869 831 q 789 872 809 831 q 708 956 758 932 q 589 975 665 975 q 388 871 458 975 q 327 642 327 781 q 328 613 327 627 q 484 621 429 621 q 602 617 524 621 q 720 613 681 613 q 764 596 747 613 q 781 553 781 579 q 764 509 781 526 q 720 492 747 492 q 602 496 681 492 q 484 500 524 500 q 347 494 431 500 q 388 256 388 313 q 361 99 388 172 l 379 99 q 537 60 445 100 q 694 19 629 19 q 846 66 810 19 q 871 155 859 83 q 928 203 880 203 q 989 138 989 203 q 975 57 989 102 q 694 -102 924 -102 q 534 -62 628 -102 q 373 -22 439 -22 q 266 -50 324 -22 q 197 -79 207 -79 q 156 -61 174 -79 q 138 -19 138 -43 q 172 36 138 1 q 233 113 216 81 q 267 256 267 173 q 228 485 267 315 q 125 482 178 482 q 25 545 25 482 q 42 589 25 571 q 84 606 59 606 q 122 605 97 606 q 159 604 146 604 z "},"§":{"ha":882,"x_min":79,"x_max":746,"o":"m 682 351 q 745 189 745 280 q 650 3 745 68 q 437 -52 567 -52 q 188 12 281 -52 q 79 229 79 85 q 140 290 79 290 q 196 253 180 290 l 217 182 q 438 56 258 56 q 563 84 513 56 q 624 189 624 119 q 497 323 624 281 l 261 399 q 165 487 197 433 q 134 616 134 541 q 153 701 134 662 q 211 773 172 740 q 178 896 178 826 q 269 1061 178 1000 q 458 1113 348 1113 q 718 1004 616 1113 q 741 954 741 979 q 724 912 741 930 q 684 893 708 893 q 594 947 667 893 q 460 1000 521 1000 q 361 976 407 1000 q 304 897 304 947 q 427 755 304 817 l 625 666 q 746 456 746 593 q 726 390 746 424 q 682 351 707 357 m 254 616 q 324 502 254 543 q 476 448 368 476 q 621 399 585 420 q 626 422 622 404 q 629 450 629 439 q 496 593 629 524 l 299 688 q 269 657 284 682 q 254 616 254 633 z "},"•":{"ha":538,"x_min":124,"x_max":395,"o":"m 124 514 q 164 610 124 570 q 260 650 203 650 q 356 610 316 650 q 395 514 395 570 q 356 418 395 458 q 260 378 316 378 q 164 418 203 378 q 124 514 124 458 z "},"¶":{"ha":964,"x_min":48,"x_max":899,"o":"m 899 847 q 840 368 899 730 q 740 -85 779 -12 q 686 -125 719 -125 q 642 -108 661 -125 q 623 -66 623 -91 q 627 -43 623 -57 q 727 400 677 119 q 779 847 779 694 q 768 950 779 882 q 758 1052 758 1018 q 819 1110 758 1110 q 878 1058 863 1110 q 899 847 899 980 m 555 968 q 283 848 375 926 q 169 582 169 750 q 267 433 169 490 q 449 385 349 385 q 518 399 477 385 q 557 865 557 621 l 555 968 m 675 1002 l 677 936 q 643 398 677 680 q 554 -93 600 43 q 499 -133 539 -133 q 455 -116 474 -133 q 436 -75 436 -100 q 439 -56 436 -67 q 469 106 454 7 l 492 269 q 449 264 470 264 q 180 346 297 264 q 48 582 48 437 q 144 876 48 752 q 401 1052 237 994 l 644 1119 q 667 1124 658 1124 q 709 1104 692 1124 q 726 1060 726 1085 q 675 1002 726 1017 z "},"ß":{"ha":616,"x_min":31,"x_max":600,"o":"m 340 935 q 233 870 273 935 q 182 676 193 806 q 170 370 170 534 q 172 246 170 329 q 174 121 174 163 q 169 -15 174 17 q 98 -106 154 -106 q 51 -89 71 -106 q 31 -45 31 -71 q 33 -31 31 -40 q 46 148 46 62 q 50 256 46 184 q 53 363 53 328 q 52 443 53 390 q 52 521 52 495 q 91 871 52 756 q 343 1065 157 1065 q 515 979 453 1065 q 570 789 570 903 q 431 553 570 691 q 558 403 515 495 q 600 186 600 311 q 543 9 600 68 q 370 -50 485 -50 q 261 -19 309 -50 q 207 75 207 17 q 251 127 207 127 q 305 102 271 127 q 366 77 338 77 q 446 98 422 77 q 473 178 473 121 q 420 386 473 308 q 321 478 393 425 q 269 551 269 517 q 311 621 269 581 l 391 696 q 433 793 433 745 q 410 900 433 865 q 340 935 387 935 z "},"®":{"ha":1105,"x_min":62,"x_max":1044,"o":"m 182 572 q 281 334 182 416 q 522 261 370 261 q 789 361 671 261 q 921 647 920 473 q 839 882 922 783 q 618 986 751 986 q 292 883 401 986 q 182 572 182 779 m 630 1106 q 928 964 807 1106 q 1044 649 1044 829 q 876 278 1044 427 q 522 140 720 140 q 195 248 319 140 q 62 572 62 364 q 203 960 62 821 q 630 1106 351 1106 m 450 686 q 580 705 556 699 q 672 773 672 728 q 522 795 642 795 l 496 795 q 465 792 477 795 q 450 686 461 757 m 577 582 q 627 527 616 537 q 690 488 655 500 q 737 431 737 471 q 720 387 737 406 q 679 368 703 368 q 582 406 629 368 q 504 486 554 427 q 428 562 455 541 q 401 418 420 513 q 342 369 388 369 q 299 386 317 369 q 281 427 281 402 q 282 440 281 433 l 341 781 q 414 901 357 899 q 450 908 425 901 q 497 916 475 916 q 684 899 623 916 q 793 774 793 867 q 577 582 793 621 z "},"©":{"ha":1105,"x_min":61,"x_max":1032,"o":"m 641 975 q 308 875 437 977 q 182 618 182 774 q 281 360 182 438 q 555 291 370 290 q 814 427 705 292 q 911 673 911 547 q 848 886 911 808 q 641 975 777 975 m 612 1099 q 923 972 808 1099 q 1032 660 1032 852 q 895 338 1032 492 q 555 170 747 172 q 61 618 61 165 q 229 950 61 802 q 612 1099 397 1099 m 606 772 q 467 735 528 772 q 404 640 404 696 q 448 575 404 602 q 528 552 487 552 q 631 594 578 552 q 698 635 684 635 q 741 616 723 635 q 760 572 760 597 q 683 479 760 525 q 528 431 606 433 q 362 488 436 429 q 283 640 283 549 q 391 823 283 747 q 601 894 490 894 q 667 875 639 894 q 699 817 699 853 q 646 765 699 765 q 625 769 638 765 q 606 772 612 772 z "},"™":{"ha":1226,"x_min":52,"x_max":1183,"o":"m 1183 624 q 1167 589 1183 604 q 1131 574 1151 574 q 1043 711 1082 574 l 999 896 q 930 718 949 760 q 824 586 870 586 q 779 631 792 586 q 752 762 765 676 q 728 895 738 855 q 570 590 640 590 q 533 606 549 590 q 517 642 517 621 q 530 674 517 656 q 610 856 577 741 l 667 1046 q 714 1082 681 1082 q 813 950 779 1082 l 848 766 q 886 877 859 785 q 936 1020 916 977 q 1002 1091 968 1091 q 1050 1050 1039 1091 l 1095 893 l 1126 770 q 1175 651 1145 707 q 1183 624 1183 636 m 103 1080 q 176 1075 127 1080 q 250 1070 225 1070 l 471 1074 l 524 1078 q 576 1080 556 1080 q 630 1029 630 1080 q 583 979 630 983 q 372 970 521 973 q 374 857 369 928 q 380 743 380 772 q 390 681 380 722 q 399 625 399 640 q 383 590 399 604 q 346 576 367 576 q 290 625 300 576 l 283 752 l 274 863 q 270 969 268 926 q 186 974 241 969 q 103 979 131 979 q 52 1029 52 979 q 103 1080 52 1080 z "},"´":{"ha":772,"x_min":144,"x_max":451,"o":"m 206 805 q 163 824 182 805 q 144 867 144 843 q 165 911 144 890 q 254 1019 195 940 q 354 1116 299 1078 q 390 1129 372 1129 q 433 1110 414 1129 q 451 1066 451 1090 q 425 1019 451 1039 q 334 920 378 981 q 246 822 288 857 q 206 805 227 805 z "},"¨":{"ha":772,"x_min":150,"x_max":661,"o":"m 225 930 q 314 859 314 930 q 284 820 314 839 q 233 803 257 803 q 150 873 150 803 q 175 911 150 892 q 225 930 201 930 m 591 936 q 637 915 614 936 q 661 873 661 893 q 564 810 661 810 q 515 825 536 810 q 490 867 490 841 q 521 928 490 914 q 591 936 538 936 z "},"≠":{"ha":709,"x_min":67,"x_max":597,"o":"m 222 56 q 179 73 197 56 q 160 114 160 90 q 185 189 160 127 q 137 187 156 187 q 75 248 75 187 q 138 309 75 295 q 238 313 168 315 l 338 556 l 219 557 q 173 555 203 557 q 127 553 142 553 q 84 571 101 553 q 67 614 67 589 q 173 678 67 678 l 380 677 l 416 768 q 487 829 447 830 q 543 773 543 829 q 511 677 543 747 q 597 616 597 677 q 549 558 597 568 q 463 556 538 556 l 367 312 l 527 309 q 570 292 553 309 q 587 249 587 275 q 570 206 587 223 q 527 189 553 189 l 317 192 l 283 108 q 222 56 256 56 z "},"Æ":{"ha":1510,"x_min":31,"x_max":1503,"o":"m 781 456 q 597 443 709 454 l 412 426 q 238 165 353 345 l 156 39 q 102 8 134 8 q 53 28 75 8 q 31 75 31 48 q 44 114 31 94 q 410 639 255 458 l 594 873 q 808 1065 716 1022 q 856 1076 831 1076 q 905 1056 884 1076 q 1058 1088 986 1078 q 1194 1099 1131 1099 q 1457 1060 1372 1099 q 1503 995 1503 1039 q 1483 945 1503 966 q 1436 924 1464 924 q 1415 927 1428 924 q 1194 960 1289 960 q 1073 949 1139 960 q 931 918 1007 939 q 937 848 937 876 q 926 589 937 753 l 1223 617 q 1383 631 1349 631 q 1434 611 1414 631 q 1453 560 1453 591 q 1392 491 1453 503 l 1230 477 l 917 448 q 911 277 911 352 q 932 101 911 124 q 1039 82 951 82 q 1165 84 1081 82 q 1293 87 1250 87 q 1332 91 1305 87 q 1372 95 1358 95 q 1444 25 1444 95 q 1386 -43 1444 -28 q 1240 -59 1329 -58 l 1092 -58 q 833 8 895 -58 q 775 277 775 71 q 781 456 775 355 m 530 572 q 790 591 696 589 q 802 848 802 755 q 798 894 802 868 q 659 738 736 837 l 530 572 z "},"Ø":{"ha":1109,"x_min":56,"x_max":1106,"o":"m 901 745 q 714 555 823 672 l 534 360 l 344 160 q 553 98 433 98 q 829 269 723 98 q 921 597 921 418 q 901 745 921 687 m 263 246 l 544 546 l 827 842 q 614 888 758 888 q 330 718 445 888 q 227 388 227 566 q 263 246 227 310 m 120 -61 q 76 -42 95 -61 q 56 1 56 -24 q 104 71 56 18 l 168 140 q 88 388 88 247 q 230 817 88 626 q 614 1027 385 1027 q 925 945 817 1027 q 1042 1046 1024 1046 q 1087 1028 1067 1046 q 1106 986 1106 1010 q 1004 852 1106 960 q 1059 597 1059 755 q 929 170 1059 359 q 553 -41 783 -41 q 247 59 376 -41 l 184 -10 q 120 -61 138 -61 z "},"∞":{"ha":1162,"x_min":100,"x_max":1061,"o":"m 646 439 q 849 309 743 302 q 933 348 909 312 q 955 447 955 379 q 921 521 955 496 q 820 546 888 546 q 713 511 758 546 q 646 439 696 498 m 579 522 q 688 615 637 589 q 827 645 745 645 q 994 589 931 645 q 1061 427 1061 531 q 1000 265 1061 323 q 832 210 937 208 q 683 261 747 212 l 589 353 l 584 358 q 483 248 532 281 q 338 208 423 208 q 173 271 243 208 q 100 435 100 338 q 166 591 100 530 q 331 652 232 652 q 477 606 406 652 q 579 522 513 584 m 517 441 q 444 509 461 496 q 331 551 387 551 q 238 515 274 551 q 201 425 201 480 q 246 342 201 373 q 340 316 286 316 q 517 441 431 316 z "},"±":{"ha":667,"x_min":33,"x_max":619,"o":"m 619 436 q 603 392 619 411 q 561 374 586 374 q 536 376 553 374 q 511 379 519 379 l 444 378 q 376 378 402 376 q 377 325 377 350 q 373 221 377 241 q 309 157 360 157 q 255 218 255 157 l 254 297 l 254 375 q 138 370 174 370 q 33 433 33 370 q 67 487 33 476 q 138 491 81 491 q 254 496 174 491 l 253 598 q 317 709 252 709 q 360 692 342 709 q 378 650 378 675 q 376 613 378 638 q 374 576 374 589 l 374 498 l 425 496 q 467 498 439 496 q 508 500 494 500 q 619 436 619 500 m 512 -77 q 536 -80 520 -77 q 561 -83 553 -83 q 603 -64 586 -83 q 619 -20 619 -45 q 508 43 619 43 q 441 42 486 43 q 374 41 397 41 q 241 38 330 41 q 108 35 153 35 q 33 -24 33 35 q 138 -87 33 -87 q 325 -82 200 -87 q 512 -77 450 -77 z "},"≤":{"ha":530,"x_min":13,"x_max":511,"o":"m 202 416 q 296 330 240 389 q 386 241 361 262 q 410 195 410 220 q 392 151 410 170 q 349 132 374 132 q 311 146 330 132 q 195 258 284 165 q 64 354 127 330 q 13 410 13 373 q 60 467 13 444 q 198 576 123 497 q 323 703 303 686 q 363 720 343 720 q 407 701 388 720 q 425 657 425 682 q 405 614 425 634 q 202 416 340 545 m 433 -81 q 486 -62 460 -81 q 511 -18 511 -42 q 474 32 511 21 q 404 37 457 37 q 251 36 353 37 q 99 35 149 35 q 24 -24 24 35 q 129 -87 24 -87 q 281 -84 183 -87 q 433 -81 380 -81 z "},"≥":{"ha":530,"x_min":24,"x_max":511,"o":"m 499 450 q 474 401 499 425 q 136 138 312 252 q 100 126 117 126 q 57 145 75 126 q 39 189 39 165 q 66 237 39 216 l 329 437 q 180 560 269 477 q 71 702 71 663 q 90 745 71 726 q 134 763 109 763 q 179 740 159 763 q 459 502 334 567 q 499 450 499 481 m 433 -81 q 486 -62 460 -81 q 511 -18 511 -42 q 474 32 511 21 q 404 37 457 37 q 251 36 353 37 q 99 35 149 35 q 24 -24 24 35 q 129 -87 24 -87 q 281 -84 183 -87 q 433 -81 380 -81 z "},"¥":{"ha":883,"x_min":90,"x_max":795,"o":"m 390 389 l 390 413 q 328 508 371 440 q 177 522 306 508 q 124 578 124 527 q 181 631 124 631 q 262 627 219 631 q 90 932 90 921 q 108 972 90 956 q 149 989 126 989 q 195 961 177 989 q 279 821 252 874 q 359 675 314 749 l 443 534 q 629 845 531 639 q 685 948 650 879 q 736 985 701 985 q 777 969 759 985 q 795 929 795 953 q 725 784 795 909 l 637 626 l 712 635 q 768 578 768 635 q 712 522 768 522 q 642 515 688 522 q 574 507 596 508 q 499 410 548 476 l 499 378 q 581 377 529 377 q 619 381 593 377 q 657 385 644 385 q 696 368 681 385 q 711 327 711 351 q 666 272 711 282 q 499 270 633 264 l 499 132 q 502 76 499 113 q 505 21 505 40 q 450 -36 505 -36 q 393 21 393 -36 q 391 85 393 42 q 389 149 389 128 l 389 271 q 302 277 340 276 q 186 339 187 278 q 256 393 185 393 q 289 392 268 393 q 317 391 309 391 q 390 389 370 391 z "},"µ":{"ha":722,"x_min":15,"x_max":801,"o":"m 216 -16 l 139 -233 q 81 -275 121 -275 q 35 -258 55 -275 q 15 -214 15 -240 q 67 -51 15 -198 q 130 144 123 104 l 137 236 q 170 452 149 353 q 235 664 194 562 q 313 723 259 723 q 368 671 368 723 q 340 566 368 646 q 304 452 308 473 q 264 156 264 269 q 264 129 264 141 q 304 110 284 117 q 346 104 325 104 q 545 133 437 104 l 597 397 q 667 656 629 553 q 745 719 689 719 q 801 669 801 719 q 770 541 801 652 l 732 396 l 671 103 q 656 12 667 73 q 574 -54 640 -54 q 522 10 522 -54 q 317 -34 428 -34 q 262 -30 288 -34 q 216 -16 237 -25 z "},"∂":{"ha":707,"x_min":125,"x_max":672,"o":"m 247 243 q 289 139 247 184 q 378 93 331 93 q 508 162 465 93 q 551 370 551 231 q 513 517 551 408 l 412 488 q 300 413 339 461 q 247 243 247 349 m 467 627 q 300 879 383 806 l 243 924 q 210 981 210 955 q 228 1024 210 1005 q 271 1043 246 1043 q 311 1027 291 1043 q 550 728 436 925 q 672 370 672 516 q 608 101 672 208 q 378 -28 530 -28 q 199 58 275 -28 q 125 243 125 140 q 227 496 125 388 q 467 627 323 599 z "},"∑":{"ha":1038,"x_min":31,"x_max":987,"o":"m 182 -190 q 140 -195 168 -190 q 100 -199 113 -199 q 52 -178 73 -199 q 31 -130 31 -157 q 99 -30 31 -102 l 193 70 l 279 209 q 470 427 361 330 q 380 547 428 467 q 233 716 338 618 q 77 879 116 826 q 58 929 58 904 q 99 991 58 969 q 176 1008 132 1008 q 518 1003 290 1008 q 861 998 747 998 q 908 978 889 998 q 926 930 926 958 q 802 859 926 859 q 653 865 752 859 q 505 871 555 871 l 271 870 l 393 749 q 497 614 460 676 q 555 533 533 552 l 623 474 q 647 425 647 451 q 607 362 647 390 q 421 163 515 297 l 262 -58 q 602 -69 430 -69 q 761 -73 655 -69 q 920 -77 867 -77 q 968 -96 949 -77 q 987 -145 987 -115 q 968 -193 987 -174 q 920 -212 949 -212 q 551 -201 797 -212 q 182 -190 305 -190 z "},"∏":{"ha":1261,"x_min":71,"x_max":1191,"o":"m 1048 919 q 1039 610 1039 810 q 1046 312 1039 511 q 1053 14 1053 113 q 1059 -54 1053 -9 q 1065 -121 1065 -98 q 1046 -169 1065 -150 q 998 -187 1027 -187 q 931 -124 939 -187 q 918 14 918 -24 q 911 312 918 113 q 905 610 905 511 q 913 926 905 811 q 890 923 905 926 l 865 920 l 726 918 l 371 924 l 380 812 l 391 285 q 387 193 391 252 q 381 100 382 127 l 381 28 l 382 -45 q 377 -137 382 -117 q 313 -188 363 -188 q 264 -170 283 -188 q 245 -122 245 -151 l 246 103 l 252 194 q 256 285 256 252 l 245 808 l 236 927 l 138 926 q 90 945 109 926 q 71 993 71 964 q 180 1063 71 1063 q 211 1063 191 1063 q 239 1062 231 1062 q 398 1058 292 1062 q 558 1053 505 1053 l 1123 1052 q 1172 1033 1153 1052 q 1191 985 1191 1014 q 1102 917 1191 917 l 1048 919 z "},"π":{"ha":872,"x_min":41,"x_max":818,"o":"m 678 439 l 657 274 q 645 109 645 175 q 690 68 652 97 q 720 21 720 45 q 656 -43 720 -43 q 557 -4 601 -43 q 514 89 514 35 q 527 264 514 160 l 550 439 l 388 446 l 366 255 q 346 3 363 170 q 285 -49 337 -49 q 238 -31 258 -49 q 219 13 219 -14 l 259 448 q 162 415 199 446 q 107 384 125 384 q 61 403 81 384 q 41 448 41 422 q 54 487 41 467 q 294 575 114 575 q 457 572 349 575 q 619 570 565 570 q 685 571 641 570 q 751 572 728 572 q 818 508 818 572 q 767 446 818 460 q 678 439 741 439 z "},"∫":{"ha":972,"x_min":54,"x_max":890,"o":"m 587 413 q 572 220 587 376 q 552 26 558 64 q 488 -182 526 -118 q 322 -274 433 -274 q 137 -203 216 -274 q 54 -25 54 -129 q 121 52 54 52 q 189 -24 189 52 q 234 -112 189 -81 q 331 -138 273 -139 l 334 -138 q 444 555 444 -139 q 467 935 444 836 q 705 1166 519 1166 q 823 1126 762 1166 q 890 1029 890 1083 q 869 982 890 1002 q 820 962 848 962 q 763 997 791 962 q 705 1031 736 1031 q 610 947 642 1031 q 578 693 578 863 q 582 553 578 646 q 587 413 587 460 z "},"ª":{"ha":732,"x_min":68,"x_max":618,"o":"m 440 1003 l 319 1006 q 240 969 276 1008 q 203 886 203 929 q 222 808 203 854 q 267 755 243 755 q 392 832 345 755 q 440 1003 432 898 m 584 1039 l 617 674 q 598 623 618 642 q 550 604 578 604 q 483 669 486 604 l 479 730 q 267 616 396 616 q 125 717 189 616 q 68 886 68 806 q 146 1064 68 987 q 328 1140 224 1141 q 455 1137 434 1139 q 564 1082 538 1126 q 584 1039 581 1065 z "},"º":{"ha":624,"x_min":27,"x_max":584,"o":"m 584 914 q 512 682 584 760 q 297 605 441 605 q 99 697 180 605 q 27 876 27 780 q 122 1065 27 976 q 325 1154 217 1154 q 498 1066 409 1153 q 584 914 584 983 m 306 1013 q 208 967 254 1013 q 162 876 162 920 q 204 773 162 817 q 305 729 247 729 q 411 791 368 729 q 450 914 450 847 q 410 980 450 949 q 306 1013 366 1013 z "},"Ω":{"ha":1333,"x_min":44,"x_max":1289,"o":"m 109 -95 q 63 -75 81 -95 q 44 -26 44 -54 q 98 39 44 25 q 344 73 143 50 l 246 311 q 205 569 205 432 q 418 955 205 792 q 845 1105 614 1105 q 1131 986 1047 1105 q 1198 686 1198 888 q 1136 351 1198 503 q 954 64 1079 212 q 1230 52 1171 64 q 1289 -14 1289 41 q 1271 -62 1289 -42 q 1223 -82 1252 -82 q 1107 -76 1185 -82 q 989 -71 1029 -71 q 927 -72 968 -71 q 865 -74 885 -74 q 806 -38 832 -74 q 781 29 781 -5 q 848 147 781 65 l 943 260 q 1064 744 1064 434 q 1014 916 1064 861 q 845 970 962 970 q 513 858 672 970 q 340 569 340 734 q 378 344 340 452 l 462 134 q 490 84 465 125 q 509 35 509 52 q 449 -51 509 -40 q 109 -95 199 -95 z "},"æ":{"ha":1266,"x_min":45,"x_max":1216,"o":"m 874 587 q 654 330 708 587 l 852 420 q 1038 532 970 475 q 874 587 979 587 m 547 37 q 469 -12 518 9 q 377 -33 418 -33 q 136 66 230 -33 q 45 312 45 163 q 167 587 45 471 q 446 700 286 700 q 610 667 516 700 q 637 590 632 659 q 743 678 675 646 q 874 709 806 709 q 1054 673 983 709 q 1145 527 1145 625 q 1066 401 1145 458 q 925 328 1034 379 l 666 205 q 892 92 742 92 q 1007 110 947 92 q 1105 168 1078 132 q 1155 204 1133 204 q 1197 186 1179 204 q 1216 144 1216 168 q 1088 12 1216 66 q 892 -31 985 -31 q 663 45 735 -31 q 669 -1 666 32 q 617 -28 672 -28 q 566 -11 581 -28 q 547 37 557 -1 m 536 562 l 488 585 q 436 590 475 590 q 252 499 329 590 q 178 304 178 413 q 237 149 178 218 q 382 77 298 77 q 466 94 428 77 q 536 146 505 111 q 521 260 521 231 q 536 562 521 450 z "},"ø":{"ha":730,"x_min":36,"x_max":699,"o":"m 520 449 l 245 140 q 349 97 290 97 q 470 149 419 97 q 531 302 528 206 q 520 449 534 391 m 204 206 q 484 526 290 302 q 389 566 449 565 q 235 471 290 566 q 190 296 190 394 q 204 206 190 245 m 85 -35 q 52 -24 67 -35 q 37 3 36 -12 q 94 89 39 38 q 108 102 100 94 q 56 296 60 184 q 134 566 52 449 q 398 703 229 703 q 570 627 504 703 l 581 639 q 658 709 642 709 q 686 696 674 709 q 699 667 699 684 q 640 584 699 654 q 615 556 637 581 q 657 338 659 461 q 578 81 655 187 q 349 -40 492 -40 q 157 39 238 -40 q 142 22 144 24 q 85 -35 100 -35 z "},"¿":{"ha":728,"x_min":35,"x_max":652,"o":"m 435 744 q 484 723 463 744 q 505 674 505 702 q 418 559 505 628 l 256 437 q 169 299 169 361 q 243 154 169 220 q 394 90 314 90 q 503 133 437 90 q 584 177 568 177 q 632 155 612 177 q 652 104 652 132 q 548 -2 652 51 q 394 -49 455 -49 q 146 57 258 -49 q 35 299 35 163 q 99 475 35 398 q 240 595 137 521 q 385 716 344 669 q 435 744 408 744 m 473 1002 q 527 982 503 1002 q 551 933 551 962 q 528 857 551 891 q 464 819 503 819 q 399 899 399 819 q 416 967 399 937 q 473 1002 438 1002 z "},"¡":{"ha":330,"x_min":81,"x_max":225,"o":"m 83 16 l 83 770 q 143 831 83 831 q 203 770 203 831 q 205 687 203 743 q 206 605 206 632 q 205 310 206 507 q 203 16 203 114 q 143 -45 203 -45 q 83 16 83 -45 m 81 1028 q 101 1070 81 1053 q 145 1088 120 1088 q 199 1053 172 1088 q 225 992 225 1020 q 206 950 225 968 q 162 932 186 932 q 108 968 136 932 q 81 1028 81 1001 z "},"¬":{"ha":667,"x_min":33,"x_max":621,"o":"m 614 229 q 599 183 614 199 q 553 168 584 168 q 493 229 493 168 l 492 307 l 492 385 q 138 370 237 370 q 33 433 33 370 q 70 488 33 477 q 138 491 83 491 q 281 494 185 491 q 425 496 377 496 q 467 498 439 496 q 508 500 494 500 q 591 484 564 500 q 619 436 619 468 q 617 332 621 407 l 614 229 z "},"√":{"ha":844,"x_min":34,"x_max":816,"o":"m 192 -21 q 85 138 141 18 q 34 300 34 251 q 55 347 34 329 q 103 366 75 366 q 168 311 151 366 q 224 176 191 238 l 306 418 q 370 667 350 559 l 403 863 q 454 1053 425 981 q 516 1099 473 1099 q 631 1102 554 1099 q 745 1105 707 1105 q 816 1038 816 1105 q 777 977 816 992 q 699 968 753 968 q 635 972 677 968 q 572 975 593 976 q 503 644 547 888 q 363 165 476 496 l 311 1 q 248 -47 292 -47 q 192 -21 214 -47 z "},"ƒ":{"ha":593,"x_min":-70,"x_max":778,"o":"m -8 -245 q -52 -225 -35 -245 q -70 -179 -70 -206 q -20 -118 -70 -132 q 139 -23 90 -90 q 205 152 178 31 l 260 433 q 161 427 180 427 q 105 476 105 427 q 176 554 105 538 l 295 563 q 414 890 358 798 q 695 1059 515 1059 q 778 1011 778 1059 q 676 930 778 930 q 500 800 567 930 q 425 573 463 728 q 564 581 535 581 q 656 530 656 581 q 546 450 656 450 q 516 450 536 450 q 488 451 496 451 l 392 444 l 343 195 q 276 -49 315 41 q 165 -176 245 -123 q 8 -243 96 -224 q -8 -245 0 -245 z "},"⋲":{"ha":861,"x_min":83,"x_max":817,"o":"m 382 813 q 484 768 438 813 l 555 682 q 643 630 597 634 q 694 707 669 628 q 759 787 719 787 q 800 771 783 787 q 817 730 817 755 q 766 580 817 646 q 641 512 712 512 q 511 560 570 512 q 431 650 477 588 q 382 699 396 699 q 256 576 326 699 q 205 544 237 544 q 164 560 182 544 q 146 600 146 576 q 153 627 146 612 q 243 753 186 703 q 382 813 309 813 m 319 468 q 421 422 376 468 l 492 336 q 581 285 534 288 q 632 362 607 283 q 696 441 656 441 q 738 426 721 441 q 755 385 754 410 q 703 235 755 300 q 578 167 650 167 q 448 215 507 167 q 369 304 414 243 q 319 353 333 353 q 193 231 264 353 q 143 199 174 199 q 102 215 120 199 q 83 254 83 231 q 90 281 83 267 q 180 408 124 357 q 319 468 247 468 z "},"Δ":{"ha":1103,"x_min":66,"x_max":1086,"o":"m 585 1128 q 661 1059 626 1128 l 706 952 l 879 572 q 1040 187 979 350 q 1086 31 1086 68 q 981 -49 1086 -49 q 864 -41 935 -49 l 747 -29 q 593 -24 680 -24 q 444 -25 543 -24 q 294 -26 344 -26 q 208 -31 265 -26 q 121 -36 150 -36 q 66 12 66 -36 q 152 222 66 42 l 260 452 l 419 849 q 495 1046 441 916 q 585 1128 534 1128 m 948 85 q 776 496 886 259 l 586 901 q 409 452 493 651 l 334 278 q 252 108 288 174 l 595 111 q 795 102 713 111 q 948 85 846 95 z "},"«":{"ha":802,"x_min":13,"x_max":733,"o":"m 202 416 q 296 330 240 389 q 386 241 361 262 q 410 195 410 220 q 392 151 410 170 q 349 132 374 132 q 311 146 330 132 q 195 258 284 165 q 64 354 127 330 q 13 410 13 373 q 60 467 13 444 q 198 576 123 497 q 323 703 303 686 q 363 720 343 720 q 407 701 388 720 q 425 657 425 682 q 405 614 425 634 q 202 416 340 545 m 510 401 q 604 316 548 374 q 693 226 669 248 q 718 180 718 205 q 699 136 718 155 q 656 117 681 117 q 619 131 638 117 q 503 244 592 151 q 372 339 435 315 q 321 395 321 359 q 367 452 321 430 q 506 562 431 482 q 631 688 610 671 q 671 705 651 705 q 714 686 696 705 q 733 643 733 667 q 712 599 733 620 q 510 401 647 530 z "},"»":{"ha":802,"x_min":13,"x_max":733,"o":"m 544 416 q 450 330 506 389 q 360 241 385 262 q 336 195 336 220 q 355 151 336 170 q 397 132 373 132 q 435 146 416 132 q 551 258 462 165 q 682 354 619 330 q 733 410 733 373 q 686 467 733 444 q 548 576 623 497 q 423 703 443 686 q 382 720 403 720 q 339 701 358 720 q 321 657 321 682 q 342 614 321 634 q 544 416 406 545 m 236 401 q 143 316 198 374 q 53 226 77 248 q 28 180 28 205 q 47 136 28 155 q 90 117 65 117 q 127 131 108 117 q 243 244 154 151 q 374 339 311 315 q 425 395 425 359 q 379 452 425 430 q 240 562 315 482 q 115 688 136 671 q 75 705 95 705 q 32 686 50 705 q 13 643 13 667 q 34 599 13 620 q 236 401 99 530 z "},"…":{"ha":938,"x_min":121,"x_max":842,"o":"m 767 -40 q 722 -28 742 -40 q 699 10 699 -14 q 705 37 699 20 q 711 61 710 54 q 776 109 717 109 q 842 58 842 109 q 767 -40 842 -40 m 472 -38 q 406 12 406 -38 l 406 56 q 472 106 406 106 q 537 56 537 106 l 537 12 q 472 -38 537 -38 m 186 -45 q 121 5 121 -45 l 121 43 q 186 94 121 94 q 252 43 252 94 l 252 5 q 186 -45 252 -45 z "}," ":{"ha":415,"x_min":0,"x_max":0,"o":""},"À":{"ha":1016,"x_min":89,"x_max":917,"o":"m 848 -20 q 739 140 785 -20 q 695 353 722 201 q 514 319 626 344 l 334 282 q 218 22 300 193 q 159 -16 196 -16 q 110 4 132 -16 q 89 53 89 24 q 191 300 89 85 q 180 341 180 318 q 246 412 180 396 q 441 745 323 557 q 642 1002 602 1002 q 715 928 695 1002 l 758 700 l 859 229 l 897 121 q 917 48 917 66 q 896 -1 917 19 q 848 -20 875 -20 m 608 755 l 414 442 q 663 493 496 463 l 608 755 m 745 1171 q 726 1129 745 1147 q 682 1111 707 1111 q 633 1139 653 1111 l 566 1240 q 481 1327 530 1290 q 455 1375 455 1348 q 473 1419 455 1400 q 515 1438 491 1438 q 652 1326 557 1438 q 745 1171 745 1215 z "},"Ã":{"ha":1016,"x_min":89,"x_max":981,"o":"m 848 -20 q 739 140 785 -20 q 695 353 722 201 q 514 319 626 344 l 334 282 q 218 22 300 193 q 159 -16 196 -16 q 110 4 132 -16 q 89 53 89 24 q 191 300 89 85 q 180 341 180 318 q 246 412 180 396 q 441 745 323 557 q 642 1002 602 1002 q 715 928 695 1002 l 758 700 l 859 229 l 897 121 q 917 48 917 66 q 896 -1 917 19 q 848 -20 875 -20 m 608 755 l 414 442 q 663 493 496 463 l 608 755 m 546 1360 q 655 1320 614 1360 l 711 1249 q 787 1209 743 1209 q 845 1234 826 1209 l 876 1294 l 890 1334 q 930 1354 899 1354 q 981 1303 981 1354 q 952 1221 981 1279 q 905 1147 925 1167 q 808 1108 867 1108 q 669 1147 720 1108 q 610 1219 651 1161 q 546 1258 581 1258 q 508 1250 525 1258 q 479 1227 492 1242 l 450 1169 q 406 1139 433 1139 q 369 1153 385 1139 q 353 1187 353 1166 q 355 1203 353 1195 q 424 1315 374 1272 q 546 1360 477 1360 z "},"Õ":{"ha":1109,"x_min":79,"x_max":1050,"o":"m 544 -41 q 220 73 353 -41 q 79 388 79 195 q 218 814 79 623 q 605 1027 373 1027 q 937 927 828 1027 q 1050 597 1050 823 q 922 174 1050 363 q 544 -41 776 -41 m 605 888 q 323 723 439 888 q 217 388 217 571 q 314 175 217 257 q 544 98 407 98 q 816 264 709 98 q 911 597 911 412 q 839 825 911 760 q 605 888 770 888 m 550 1361 q 659 1322 618 1361 l 715 1250 q 791 1211 747 1211 q 849 1236 830 1211 l 880 1295 l 894 1335 q 935 1355 903 1355 q 985 1305 985 1355 q 956 1223 985 1280 q 909 1148 929 1168 q 812 1109 871 1109 q 673 1148 724 1109 q 614 1221 655 1162 q 550 1259 585 1259 q 512 1252 529 1259 q 484 1228 496 1244 l 454 1171 q 410 1140 437 1140 q 373 1154 389 1140 q 357 1189 357 1168 q 359 1204 357 1196 q 428 1316 378 1274 q 550 1361 481 1361 z "},"Œ":{"ha":1658,"x_min":88,"x_max":1648,"o":"m 614 888 q 333 723 448 888 q 227 388 227 571 q 323 175 227 257 q 553 98 416 98 q 825 264 718 98 q 921 597 921 412 q 848 825 921 760 q 614 888 779 888 m 1581 928 q 1560 932 1572 928 q 1339 964 1446 964 q 1076 923 1227 964 q 1080 883 1079 901 q 1082 852 1082 865 q 1071 593 1082 758 l 1368 621 q 1529 635 1498 635 q 1578 616 1558 635 q 1598 565 1598 597 q 1537 496 1598 504 l 1375 482 l 1061 453 q 1056 281 1056 356 q 1078 106 1056 132 q 1183 87 1093 87 q 1310 89 1225 87 q 1437 92 1395 92 q 1477 96 1451 92 q 1516 100 1503 100 q 1589 30 1589 100 q 1531 -39 1589 -27 q 1255 -52 1467 -52 q 1010 -15 1072 -52 q 925 164 939 28 q 760 10 852 62 q 553 -41 667 -41 q 229 73 362 -41 q 88 388 88 195 q 227 814 88 623 q 614 1027 382 1027 q 803 1004 722 1027 q 939 934 884 981 q 933 999 933 975 q 1000 1080 933 1080 q 1049 1060 1029 1080 q 1339 1104 1212 1104 q 1603 1064 1503 1104 q 1648 1000 1648 1046 q 1630 951 1648 972 q 1581 928 1611 928 z "},"œ":{"ha":1246,"x_min":52,"x_max":1219,"o":"m 594 104 q 349 -40 507 -40 q 153 44 235 -40 q 56 296 61 138 q 134 566 52 449 q 398 703 229 703 q 614 557 547 703 q 878 709 708 709 q 1061 671 990 709 q 1149 527 1149 623 q 1072 404 1149 459 q 928 328 1038 379 l 669 205 q 896 92 745 92 q 1006 109 943 92 q 1109 168 1086 132 q 1158 204 1132 204 q 1201 186 1182 204 q 1219 144 1219 168 q 1098 15 1219 69 q 896 -31 994 -31 q 594 104 686 -31 m 1041 532 q 878 587 983 587 q 658 330 712 587 l 866 429 q 1041 532 989 488 m 531 302 q 389 566 541 565 q 235 471 290 566 q 190 296 190 394 q 243 142 190 197 q 349 97 288 97 q 470 149 419 97 q 531 302 528 205 z "},"–":{"ha":613,"x_min":30,"x_max":562,"o":"m 269 515 q 382 509 307 515 q 494 503 457 503 q 543 484 524 503 q 562 436 562 465 q 543 388 562 407 q 494 369 524 369 q 382 374 457 369 q 269 380 307 380 q 109 370 180 380 q 97 369 102 369 q 49 388 68 369 q 30 437 30 407 q 85 503 30 490 q 269 515 141 515 z "},"—":{"ha":1226,"x_min":45,"x_max":1158,"o":"m 265 507 q 514 502 348 507 q 762 498 680 498 l 921 502 l 1060 507 l 1099 507 q 1158 445 1158 507 q 1040 370 1158 370 q 980 372 1022 370 q 920 374 939 374 q 517 372 786 374 q 115 370 249 370 q 45 437 45 370 q 111 505 45 500 q 265 507 138 507 z "},"“":{"ha":547,"x_min":48,"x_max":453,"o":"m 390 739 q 330 784 345 739 q 258 1035 258 1016 q 277 1078 258 1061 q 323 1095 296 1095 q 382 1045 371 1095 l 422 916 q 453 800 453 820 q 434 756 453 774 q 390 739 416 739 m 172 741 q 115 780 132 741 q 77 901 106 802 q 48 1017 48 1002 q 67 1060 48 1042 q 113 1077 87 1077 q 171 1032 157 1077 l 205 911 l 236 802 q 217 759 236 777 q 172 741 197 741 z "},"”":{"ha":547,"x_min":71,"x_max":493,"o":"m 368 677 q 322 694 340 677 q 304 739 304 711 q 370 1025 304 814 q 428 1072 385 1072 q 474 1054 454 1072 q 493 1010 493 1036 l 453 861 q 429 734 437 802 q 368 677 422 677 m 134 677 q 89 694 107 677 q 71 739 71 711 q 136 1025 71 814 q 195 1072 151 1072 q 240 1054 221 1072 q 260 1010 260 1036 l 220 861 q 195 734 204 802 q 134 677 189 677 z "},"‘":{"ha":250,"x_min":52,"x_max":192,"o":"m 136 742 q 75 810 85 742 q 52 1006 52 979 q 108 1076 52 1076 q 168 1012 159 1076 q 192 812 192 846 q 136 742 192 742 z "},"’":{"ha":250,"x_min":39,"x_max":189,"o":"m 94 742 q 39 804 41 742 q 55 902 39 829 l 81 1021 q 132 1074 90 1074 q 172 1056 157 1074 q 187 1013 187 1038 q 151 806 189 956 q 94 742 135 742 z "},"÷":{"ha":667,"x_min":33,"x_max":619,"o":"m 425 496 q 467 498 439 496 q 508 500 494 500 q 619 436 619 500 q 602 392 619 411 q 561 374 585 374 q 536 376 553 374 q 511 379 520 379 q 325 375 449 379 q 138 370 200 370 q 33 433 33 370 q 67 486 33 475 q 138 491 82 491 q 256 495 177 491 q 376 500 336 500 q 400 498 384 500 q 425 496 417 496 m 307 773 q 368 713 368 773 q 306 652 368 652 q 245 713 245 652 q 307 773 245 773 m 258 187 q 275 230 258 212 q 318 248 293 248 q 361 230 343 248 q 378 187 378 212 q 361 145 378 163 q 318 127 343 127 q 275 145 293 127 q 258 187 258 163 z "},"◊":{"ha":1003,"x_min":41,"x_max":970,"o":"m 518 140 l 663 350 q 799 533 747 471 q 547 825 680 647 l 471 930 l 406 838 l 197 494 q 518 140 344 366 m 970 538 q 939 472 970 501 q 621 42 837 377 q 524 -56 559 -56 q 468 -23 492 -56 q 72 419 234 294 q 41 477 41 444 q 50 511 41 495 q 405 1064 248 866 q 479 1109 440 1109 q 522 1086 501 1109 q 621 963 562 1042 q 741 811 686 875 l 878 662 q 970 538 970 559 z "},"ÿ":{"ha":599,"x_min":-3,"x_max":694,"o":"m 686 605 l 451 98 q 318 -212 364 -87 l 273 -344 q 212 -393 256 -393 q 163 -374 184 -393 q 142 -328 142 -355 q 289 65 142 -260 l 46 532 l 16 582 q -3 634 -3 613 q 19 683 -3 662 q 66 704 40 704 q 115 680 98 704 q 362 224 230 520 l 463 458 q 567 667 517 580 q 624 705 589 705 q 673 686 652 705 q 694 639 694 666 q 686 605 694 624 m 165 930 q 254 859 254 930 q 224 820 254 839 q 173 803 197 803 q 90 873 90 803 q 115 911 90 892 q 165 930 140 930 m 530 936 q 577 915 553 936 q 601 873 601 893 q 504 810 601 810 q 454 825 476 810 q 430 867 430 841 q 460 928 430 914 q 530 936 477 936 z "},"Ÿ":{"ha":882,"x_min":20,"x_max":831,"o":"m 795 867 q 751 788 779 842 l 635 500 q 507 216 567 338 l 422 65 l 387 -8 q 326 -47 364 -47 q 278 -28 300 -47 q 256 21 256 -8 q 320 165 256 44 l 404 318 q 246 565 282 475 q 144 749 216 642 q 30 926 47 895 q 20 962 20 944 q 41 1011 20 991 q 90 1031 62 1031 q 145 1000 123 1031 l 199 916 q 294 770 271 809 q 374 616 345 687 q 469 462 396 559 l 625 840 q 698 985 651 887 q 761 1031 717 1031 q 809 1012 788 1031 q 831 963 831 993 q 795 867 831 932 m 283 1239 q 372 1168 372 1239 q 342 1128 372 1147 q 291 1112 315 1112 q 208 1181 208 1112 q 233 1220 208 1201 q 283 1239 258 1239 m 648 1244 q 695 1223 671 1244 q 719 1181 719 1202 q 622 1119 719 1119 q 572 1133 594 1119 q 548 1176 548 1149 q 578 1236 548 1223 q 648 1244 595 1244 z "},"⁄":{"ha":1126,"x_min":18,"x_max":1086,"o":"m 86 -37 q 38 -16 59 -37 q 18 33 18 5 q 41 82 18 58 l 183 225 l 323 381 q 470 532 406 473 q 693 794 559 614 q 912 1060 836 983 l 959 1118 q 1016 1153 988 1153 q 1065 1133 1044 1153 q 1086 1086 1086 1114 q 1077 1051 1086 1069 q 1017 977 1059 1019 q 952 908 966 925 l 743 643 q 517 392 624 497 q 326 180 475 351 q 131 -18 203 40 q 86 -37 109 -37 z "},"¤":{"ha":850,"x_min":38,"x_max":835,"o":"m 428 397 q 503 437 473 397 q 527 504 527 471 q 503 588 527 560 q 431 616 479 616 q 342 591 384 616 q 295 525 295 563 q 334 431 295 466 q 428 397 370 397 m 321 731 q 380 745 347 741 q 454 750 414 750 q 492 743 470 750 q 541 720 513 735 l 657 791 q 768 846 749 846 q 815 825 795 846 q 835 776 835 803 q 802 721 835 742 q 639 621 747 684 q 656 567 650 597 q 661 504 661 538 q 648 439 661 473 q 610 368 635 405 q 700 286 652 336 q 763 191 763 219 q 742 143 763 163 q 693 122 720 122 q 644 144 667 122 l 581 212 q 511 273 543 252 q 473 264 494 267 q 425 260 452 260 q 357 274 393 260 q 279 314 320 288 l 159 174 q 108 149 136 149 q 59 169 81 149 q 38 216 38 189 q 54 259 38 238 q 186 415 101 309 q 160 525 160 465 q 173 594 160 562 q 210 655 185 627 l 132 738 q 78 827 78 798 q 100 874 78 854 q 149 895 121 895 q 201 866 179 895 q 321 731 249 819 z "},"‹":{"ha":530,"x_min":72,"x_max":484,"o":"m 261 416 q 355 330 299 389 q 444 241 420 262 q 469 195 469 220 q 450 151 469 170 q 408 132 432 132 q 370 146 389 132 q 254 258 343 165 q 123 354 186 330 q 72 410 72 373 q 118 467 72 444 q 257 576 182 497 q 382 703 361 686 q 422 720 402 720 q 466 701 447 720 q 484 657 484 682 q 463 614 484 634 q 261 416 398 545 z "},"›":{"ha":530,"x_min":72,"x_max":484,"o":"m 295 416 q 201 330 257 389 q 112 241 136 262 q 87 195 87 220 q 106 151 87 170 q 149 132 124 132 q 186 146 167 132 q 302 258 213 165 q 433 354 370 330 q 484 410 484 373 q 437 467 484 444 q 299 576 374 497 q 174 703 194 686 q 134 720 154 720 q 91 701 109 720 q 72 657 72 682 q 93 614 72 634 q 295 416 157 545 z "},"":{"ha":915,"x_min":51,"x_max":829,"o":"m 749 859 q 693 882 717 859 q 669 937 669 905 q 693 993 669 970 q 749 1016 717 1016 q 805 993 782 1016 q 829 937 829 970 q 805 882 829 905 q 749 859 782 859 m 780 308 q 782 186 780 267 q 785 64 785 105 q 766 16 785 35 q 718 -3 748 -3 q 670 16 689 -3 q 652 64 652 35 q 649 186 652 105 q 647 308 647 267 q 652 443 647 369 l 659 568 l 608 569 q 358 553 566 569 l 353 398 q 355 272 353 356 q 358 146 358 188 q 343 -54 358 18 q 280 -109 332 -109 q 233 -91 252 -109 q 213 -45 213 -73 q 214 -32 213 -40 q 229 160 229 56 l 227 345 l 227 542 q 119 535 142 535 q 51 601 51 535 q 170 671 51 668 l 235 673 q 245 777 237 711 q 321 998 262 927 q 541 1084 391 1084 q 638 1019 638 1084 q 550 954 638 954 q 366 726 386 954 l 364 684 q 675 701 608 701 q 793 626 793 701 q 787 467 793 562 q 780 308 780 372 z "},"":{"ha":911,"x_min":47,"x_max":840,"o":"m 706 981 q 671 984 674 984 q 420 918 481 984 q 366 726 378 872 q 361 606 363 689 q 510 614 476 614 q 618 546 618 614 q 511 480 618 477 l 458 482 l 355 475 q 353 398 353 433 q 355 272 353 356 q 358 146 358 188 q 343 -54 358 18 q 280 -109 332 -109 q 233 -91 252 -109 q 213 -45 213 -73 q 214 -32 213 -40 q 229 160 229 56 l 225 306 l 223 464 q 116 457 138 457 q 47 523 47 457 q 166 593 47 590 l 231 595 l 245 777 q 333 999 263 934 q 668 1096 427 1087 q 720 1094 685 1097 q 772 1091 760 1091 q 840 1023 840 1091 q 836 778 840 916 q 833 533 833 640 l 823 196 q 817 39 823 142 q 751 -29 810 -29 q 684 40 684 -29 q 692 287 684 122 q 699 533 699 451 l 703 764 l 706 981 z "},"‡":{"ha":829,"x_min":39,"x_max":790,"o":"m 319 451 l 331 768 l 237 768 q 116 772 138 768 q 39 840 39 785 q 58 889 39 869 q 105 909 77 909 q 170 906 126 909 q 237 902 214 902 l 336 903 l 340 1083 q 359 1132 340 1113 q 407 1151 378 1151 q 455 1132 437 1151 q 474 1083 474 1113 l 471 900 q 576 897 539 897 q 651 903 601 897 q 725 909 701 909 q 771 889 753 909 q 790 840 790 869 q 708 769 790 785 q 581 763 674 763 l 465 766 l 453 448 q 662 441 594 448 q 724 374 724 434 q 706 326 724 345 q 659 307 687 307 q 555 310 624 307 l 452 313 l 452 -74 q 433 -122 452 -103 q 385 -141 414 -141 q 336 -122 355 -141 q 317 -74 317 -103 l 317 317 q 273 319 292 319 q 163 308 214 319 q 146 306 153 306 q 100 327 118 306 q 81 375 81 347 q 251 453 81 453 l 319 451 z "},"·":{"ha":346,"x_min":97,"x_max":265,"o":"m 181 401 q 121 426 146 401 q 97 486 97 450 q 121 545 97 520 q 181 570 146 570 q 240 545 216 570 q 265 486 265 520 q 240 426 265 450 q 181 401 216 401 z "},"‚":{"ha":415,"x_min":55,"x_max":275,"o":"m 116 -132 q 55 -68 55 -132 q 113 62 55 -24 q 213 152 174 152 q 256 134 237 152 q 275 91 275 115 q 228 11 275 66 q 176 -74 179 -47 q 116 -132 169 -132 z "},"„":{"ha":572,"x_min":55,"x_max":516,"o":"m 116 -132 q 55 -68 55 -132 q 113 62 55 -24 q 213 152 174 152 q 256 134 237 152 q 275 91 275 115 q 228 11 275 66 q 176 -74 179 -47 q 116 -132 169 -132 m 357 -132 q 296 -68 296 -132 q 354 62 296 -24 q 454 152 414 152 q 497 134 478 152 q 516 91 516 115 q 469 11 516 66 q 416 -74 420 -47 q 357 -132 410 -132 z "},"‰":{"ha":1724,"x_min":100,"x_max":1607,"o":"m 300 706 q 151 772 206 706 q 100 929 100 833 q 168 1055 100 996 q 302 1114 235 1114 q 458 1048 401 1114 q 515 886 515 986 q 447 753 515 804 q 300 706 385 706 m 300 1000 q 243 980 270 1000 q 213 929 213 958 q 235 847 213 875 q 300 820 257 820 q 365 835 336 820 q 401 886 401 854 q 376 971 401 943 q 300 1000 351 1000 m 330 -20 q 289 -4 307 -20 q 271 35 271 12 q 275 58 271 45 q 382 297 309 151 q 496 534 472 477 l 680 941 q 708 1005 698 985 q 747 1065 726 1042 q 790 1087 768 1087 q 831 1070 813 1087 q 849 1029 849 1053 q 837 996 849 1016 q 783 888 812 954 l 735 778 l 601 490 l 449 170 q 380 16 428 117 q 330 -20 361 -20 m 854 -13 q 701 43 762 -13 q 637 192 637 100 q 694 359 637 292 q 853 429 755 429 q 1015 376 946 429 q 1091 229 1091 319 q 1025 56 1091 125 q 854 -13 958 -13 m 853 315 q 776 277 804 315 q 751 192 751 243 q 781 123 751 146 q 869 100 810 100 q 950 133 924 100 q 977 229 977 165 q 934 294 977 270 q 853 315 897 315 m 1371 -11 q 1217 45 1278 -11 q 1154 194 1154 102 q 1211 361 1154 295 q 1370 431 1271 431 q 1531 378 1462 431 q 1607 231 1607 321 q 1541 58 1607 127 q 1371 -11 1474 -11 m 1370 317 q 1292 279 1320 317 q 1267 194 1267 245 q 1297 125 1267 149 q 1386 102 1327 102 q 1467 135 1440 102 q 1494 231 1494 167 q 1451 296 1494 272 q 1370 317 1414 317 z "},"Â":{"ha":1016,"x_min":89,"x_max":917,"o":"m 848 -20 q 739 140 785 -20 q 695 353 722 201 q 514 319 626 344 l 334 282 q 218 22 300 193 q 159 -16 196 -16 q 110 4 132 -16 q 89 53 89 24 q 191 300 89 85 q 180 341 180 318 q 246 412 180 396 q 441 745 323 557 q 642 1002 602 1002 q 715 928 695 1002 l 758 700 l 859 229 l 897 121 q 917 48 917 66 q 896 -1 917 19 q 848 -20 875 -20 m 608 755 l 414 442 q 663 493 496 463 l 608 755 m 619 1417 q 709 1372 656 1417 q 783 1296 725 1358 l 890 1181 q 908 1139 908 1160 q 889 1096 908 1115 q 846 1078 871 1078 q 803 1097 823 1078 q 633 1274 749 1158 q 412 1062 461 1062 q 369 1081 388 1062 q 351 1124 351 1100 q 371 1168 351 1148 q 578 1396 409 1205 q 619 1417 596 1417 z "},"Ê":{"ha":867,"x_min":136,"x_max":863,"o":"m 797 913 q 776 916 787 913 q 555 949 661 949 q 433 939 499 949 q 292 907 368 928 q 298 837 298 863 q 286 578 298 743 l 583 606 q 744 620 714 620 q 794 601 774 620 q 814 550 814 582 q 752 481 814 488 l 591 467 l 277 438 q 273 347 275 390 q 271 267 271 304 q 293 90 271 117 q 399 71 309 71 q 526 74 441 71 q 653 76 610 76 q 693 80 667 76 q 732 85 720 85 q 804 14 804 85 q 747 -54 804 -43 q 471 -67 683 -67 q 201 -12 260 -67 q 136 267 136 49 q 138 361 136 310 q 143 473 140 413 q 136 506 136 488 q 149 547 136 529 q 162 837 162 743 q 155 910 162 862 q 149 984 149 959 q 216 1065 149 1065 q 265 1045 245 1065 q 419 1078 347 1067 q 555 1088 491 1088 q 818 1049 720 1088 q 863 984 863 1031 q 846 936 863 957 q 797 913 826 913 m 509 1531 q 599 1485 547 1531 q 673 1409 615 1471 l 781 1294 q 798 1253 798 1274 q 780 1210 798 1228 q 736 1191 761 1191 q 693 1211 713 1191 q 524 1387 639 1272 q 302 1175 351 1175 q 259 1194 278 1175 q 241 1238 241 1213 q 261 1282 241 1261 q 468 1510 299 1318 q 509 1531 486 1531 z "},"Á":{"ha":1016,"x_min":89,"x_max":917,"o":"m 848 -20 q 739 140 785 -20 q 695 353 722 201 q 514 319 626 344 l 334 282 q 218 22 300 193 q 159 -16 196 -16 q 110 4 132 -16 q 89 53 89 24 q 191 300 89 85 q 180 341 180 318 q 246 412 180 396 q 441 745 323 557 q 642 1002 602 1002 q 715 928 695 1002 l 758 700 l 859 229 l 897 121 q 917 48 917 66 q 896 -1 917 19 q 848 -20 875 -20 m 608 755 l 414 442 q 663 493 496 463 l 608 755 m 631 1105 q 588 1124 607 1105 q 570 1168 570 1143 q 591 1212 570 1191 q 680 1320 620 1240 q 779 1417 724 1378 q 815 1430 798 1430 q 858 1410 840 1430 q 876 1367 876 1391 q 850 1319 876 1339 q 759 1221 803 1281 q 671 1122 713 1157 q 631 1105 652 1105 z "},"Ë":{"ha":867,"x_min":136,"x_max":863,"o":"m 797 913 q 776 916 787 913 q 555 949 661 949 q 433 939 499 949 q 292 907 368 928 q 298 837 298 863 q 286 578 298 743 l 583 606 q 744 620 714 620 q 794 601 774 620 q 814 550 814 582 q 752 481 814 488 l 591 467 l 277 438 q 273 347 275 390 q 271 267 271 304 q 293 90 271 117 q 399 71 309 71 q 526 74 441 71 q 653 76 610 76 q 693 80 667 76 q 732 85 720 85 q 804 14 804 85 q 747 -54 804 -43 q 471 -67 683 -67 q 201 -12 260 -67 q 136 267 136 49 q 138 361 136 310 q 143 473 140 413 q 136 506 136 488 q 149 547 136 529 q 162 837 162 743 q 155 910 162 862 q 149 984 149 959 q 216 1065 149 1065 q 265 1045 245 1065 q 419 1078 347 1067 q 555 1088 491 1088 q 818 1049 720 1088 q 863 984 863 1031 q 846 936 863 957 q 797 913 826 913 m 354 1316 q 443 1244 443 1316 q 413 1205 443 1224 q 362 1188 386 1188 q 279 1258 279 1188 q 304 1297 279 1278 q 354 1316 330 1316 m 720 1321 q 766 1300 743 1321 q 790 1258 790 1278 q 693 1196 790 1196 q 644 1210 665 1196 q 619 1253 619 1226 q 650 1313 619 1299 q 720 1321 667 1321 z "},"È":{"ha":867,"x_min":136,"x_max":863,"o":"m 797 913 q 776 916 787 913 q 555 949 661 949 q 433 939 499 949 q 292 907 368 928 q 298 837 298 863 q 286 578 298 743 l 583 606 q 744 620 714 620 q 794 601 774 620 q 814 550 814 582 q 752 481 814 488 l 591 467 l 277 438 q 273 347 275 390 q 271 267 271 304 q 293 90 271 117 q 399 71 309 71 q 526 74 441 71 q 653 76 610 76 q 693 80 667 76 q 732 85 720 85 q 804 14 804 85 q 747 -54 804 -43 q 471 -67 683 -67 q 201 -12 260 -67 q 136 267 136 49 q 138 361 136 310 q 143 473 140 413 q 136 506 136 488 q 149 547 136 529 q 162 837 162 743 q 155 910 162 862 q 149 984 149 959 q 216 1065 149 1065 q 265 1045 245 1065 q 419 1078 347 1067 q 555 1088 491 1088 q 818 1049 720 1088 q 863 984 863 1031 q 846 936 863 957 q 797 913 826 913 m 648 1245 q 628 1203 648 1221 q 585 1185 609 1185 q 536 1213 555 1185 l 468 1314 q 384 1401 432 1364 q 357 1449 357 1421 q 375 1493 357 1474 q 418 1512 393 1512 q 555 1400 460 1512 q 648 1245 648 1289 z "},"Í":{"ha":759,"x_min":51,"x_max":719,"o":"m 649 845 q 540 854 606 845 l 431 868 q 415 491 415 671 q 418 374 415 444 q 420 256 420 304 q 416 140 420 193 l 629 143 q 677 123 658 143 q 696 74 696 103 q 677 24 696 44 q 629 4 658 4 q 515 2 591 4 q 401 1 439 1 q 268 -12 357 1 q 133 -24 178 -24 q 85 -4 104 -24 q 66 45 66 16 q 85 94 66 74 q 133 115 104 115 q 279 129 177 115 q 286 254 286 184 q 281 369 286 301 q 277 482 277 436 q 296 873 277 639 l 208 871 l 119 869 q 71 888 90 869 q 51 939 51 908 q 115 1008 51 1002 q 320 1013 170 1013 q 659 984 455 1013 q 719 911 719 975 q 696 861 719 880 q 649 845 675 845 m 355 1124 q 312 1143 331 1124 q 294 1186 294 1162 q 315 1230 294 1209 q 404 1338 344 1259 q 503 1435 448 1396 q 539 1448 522 1448 q 582 1429 564 1448 q 600 1385 600 1409 q 574 1337 600 1358 q 483 1239 527 1299 q 395 1141 437 1175 q 355 1124 376 1124 z "},"Î":{"ha":759,"x_min":51,"x_max":719,"o":"m 649 845 q 540 854 606 845 l 431 868 q 415 491 415 671 q 418 374 415 444 q 420 256 420 304 q 416 140 420 193 l 629 143 q 677 123 658 143 q 696 74 696 103 q 677 24 696 44 q 629 4 658 4 q 515 2 591 4 q 401 1 439 1 q 268 -12 357 1 q 133 -24 178 -24 q 85 -4 104 -24 q 66 45 66 16 q 85 94 66 74 q 133 115 104 115 q 279 129 177 115 q 286 254 286 184 q 281 369 286 301 q 277 482 277 436 q 296 873 277 639 l 208 871 l 119 869 q 71 888 90 869 q 51 939 51 908 q 115 1008 51 1002 q 320 1013 170 1013 q 659 984 455 1013 q 719 911 719 975 q 696 861 719 880 q 649 845 675 845 m 389 1476 q 479 1431 427 1476 q 553 1355 495 1417 l 661 1240 q 678 1198 678 1219 q 660 1155 678 1174 q 616 1137 641 1137 q 573 1156 593 1137 q 404 1333 519 1217 q 182 1121 231 1121 q 139 1140 158 1121 q 121 1183 121 1159 q 141 1227 121 1207 q 348 1455 179 1264 q 389 1476 366 1476 z "},"Ï":{"ha":759,"x_min":51,"x_max":719,"o":"m 649 845 q 540 854 606 845 l 431 868 q 415 491 415 671 q 418 374 415 444 q 420 256 420 304 q 416 140 420 193 l 629 143 q 677 123 658 143 q 696 74 696 103 q 677 24 696 44 q 629 4 658 4 q 515 2 591 4 q 401 1 439 1 q 268 -12 357 1 q 133 -24 178 -24 q 85 -4 104 -24 q 66 45 66 16 q 85 94 66 74 q 133 115 104 115 q 279 129 177 115 q 286 254 286 184 q 281 369 286 301 q 277 482 277 436 q 296 873 277 639 l 208 871 l 119 869 q 71 888 90 869 q 51 939 51 908 q 115 1008 51 1002 q 320 1013 170 1013 q 659 984 455 1013 q 719 911 719 975 q 696 861 719 880 q 649 845 675 845 m 227 1249 q 315 1178 315 1249 q 286 1139 315 1158 q 235 1122 258 1122 q 151 1192 151 1122 q 177 1230 151 1211 q 227 1249 202 1249 m 592 1255 q 639 1233 615 1255 q 663 1192 663 1212 q 566 1129 663 1129 q 516 1143 538 1129 q 492 1186 492 1160 q 522 1246 492 1233 q 592 1255 539 1255 z "},"Ì":{"ha":759,"x_min":51,"x_max":719,"o":"m 649 845 q 540 854 606 845 l 431 868 q 415 491 415 671 q 418 374 415 444 q 420 256 420 304 q 416 140 420 193 l 629 143 q 677 123 658 143 q 696 74 696 103 q 677 24 696 44 q 629 4 658 4 q 515 2 591 4 q 401 1 439 1 q 268 -12 357 1 q 133 -24 178 -24 q 85 -4 104 -24 q 66 45 66 16 q 85 94 66 74 q 133 115 104 115 q 279 129 177 115 q 286 254 286 184 q 281 369 286 301 q 277 482 277 436 q 296 873 277 639 l 208 871 l 119 869 q 71 888 90 869 q 51 939 51 908 q 115 1008 51 1002 q 320 1013 170 1013 q 659 984 455 1013 q 719 911 719 975 q 696 861 719 880 q 649 845 675 845 m 511 1198 q 492 1156 511 1174 q 448 1138 473 1138 q 399 1166 419 1138 l 332 1267 q 248 1354 296 1317 q 221 1402 221 1375 q 239 1446 221 1427 q 281 1466 257 1466 q 418 1353 323 1466 q 511 1198 511 1242 z "},"Ó":{"ha":1109,"x_min":79,"x_max":1050,"o":"m 544 -41 q 220 73 353 -41 q 79 388 79 195 q 218 814 79 623 q 605 1027 373 1027 q 937 927 828 1027 q 1050 597 1050 823 q 922 174 1050 363 q 544 -41 776 -41 m 605 888 q 323 723 439 888 q 217 388 217 571 q 314 175 217 257 q 544 98 407 98 q 816 264 709 98 q 911 597 911 412 q 839 825 911 760 q 605 888 770 888 m 657 1110 q 614 1129 633 1110 q 595 1173 595 1148 q 616 1217 595 1196 q 705 1324 646 1245 q 805 1421 750 1383 q 841 1434 823 1434 q 884 1415 865 1434 q 902 1371 902 1396 q 876 1324 902 1344 q 785 1225 829 1286 q 697 1127 739 1162 q 657 1110 678 1110 z "},"Ô":{"ha":1109,"x_min":79,"x_max":1050,"o":"m 544 -41 q 220 73 353 -41 q 79 388 79 195 q 218 814 79 623 q 605 1027 373 1027 q 937 927 828 1027 q 1050 597 1050 823 q 922 174 1050 363 q 544 -41 776 -41 m 605 888 q 323 723 439 888 q 217 388 217 571 q 314 175 217 257 q 544 98 407 98 q 816 264 709 98 q 911 597 911 412 q 839 825 911 760 q 605 888 770 888 m 665 1451 q 754 1406 702 1451 q 828 1330 770 1392 l 936 1215 q 954 1173 954 1194 q 935 1130 954 1149 q 891 1112 916 1112 q 848 1131 869 1112 q 679 1308 794 1192 q 458 1096 507 1096 q 415 1115 433 1096 q 396 1158 396 1134 q 416 1202 396 1182 q 623 1430 454 1239 q 665 1451 642 1451 z "},"Ò":{"ha":1109,"x_min":79,"x_max":1050,"o":"m 544 -41 q 220 73 353 -41 q 79 388 79 195 q 218 814 79 623 q 605 1027 373 1027 q 937 927 828 1027 q 1050 597 1050 823 q 922 174 1050 363 q 544 -41 776 -41 m 605 888 q 323 723 439 888 q 217 388 217 571 q 314 175 217 257 q 544 98 407 98 q 816 264 709 98 q 911 597 911 412 q 839 825 911 760 q 605 888 770 888 m 828 1178 q 809 1136 828 1154 q 765 1118 789 1118 q 716 1146 736 1118 l 648 1247 q 564 1334 612 1297 q 538 1382 538 1354 q 556 1426 538 1407 q 598 1445 574 1445 q 735 1333 640 1445 q 828 1178 828 1221 z "},"Ú":{"ha":1023,"x_min":105,"x_max":942,"o":"m 536 -27 q 221 94 325 -27 q 115 383 137 192 q 105 727 105 469 q 109 880 105 822 q 121 966 113 942 q 182 1016 138 1016 q 245 901 245 1016 l 245 503 q 532 92 245 92 q 803 784 803 92 q 803 850 803 810 q 802 905 802 891 q 817 979 802 947 q 873 1019 836 1019 q 941 926 941 1019 q 942 842 941 899 q 942 758 942 786 q 536 -27 942 -27 m 520 1114 q 477 1133 496 1114 q 458 1177 458 1152 q 479 1221 458 1200 q 568 1329 509 1249 q 668 1426 613 1387 q 704 1438 686 1438 q 747 1419 728 1438 q 765 1375 765 1400 q 739 1328 765 1348 q 648 1230 692 1290 q 560 1131 602 1166 q 520 1114 541 1114 z "},"Û":{"ha":1023,"x_min":105,"x_max":942,"o":"m 536 -27 q 221 94 325 -27 q 115 383 137 192 q 105 727 105 469 q 109 880 105 822 q 121 966 113 942 q 182 1016 138 1016 q 245 901 245 1016 l 245 503 q 532 92 245 92 q 803 784 803 92 q 803 850 803 810 q 802 905 802 891 q 817 979 802 947 q 873 1019 836 1019 q 941 926 941 1019 q 942 842 941 899 q 942 758 942 786 q 536 -27 942 -27 m 555 1455 q 644 1410 592 1455 q 718 1334 661 1396 l 826 1219 q 844 1177 844 1198 q 825 1134 844 1153 q 781 1116 806 1116 q 739 1135 759 1116 q 569 1312 684 1196 q 348 1100 397 1100 q 305 1119 323 1100 q 286 1162 286 1138 q 307 1206 286 1186 q 513 1434 345 1243 q 555 1455 532 1455 z "},"Ù":{"ha":1023,"x_min":105,"x_max":942,"o":"m 536 -27 q 221 94 325 -27 q 115 383 137 192 q 105 727 105 469 q 109 880 105 822 q 121 966 113 942 q 182 1016 138 1016 q 245 901 245 1016 l 245 503 q 532 92 245 92 q 803 784 803 92 q 803 850 803 810 q 802 905 802 891 q 817 979 802 947 q 873 1019 836 1019 q 941 926 941 1019 q 942 842 941 899 q 942 758 942 786 q 536 -27 942 -27 m 629 1168 q 609 1126 629 1144 q 566 1108 590 1108 q 517 1137 536 1108 l 449 1238 q 365 1324 413 1287 q 338 1373 338 1345 q 356 1416 338 1397 q 399 1436 374 1436 q 536 1323 441 1436 q 629 1168 629 1212 z "},"ı":{"ha":389,"x_min":121,"x_max":268,"o":"m 254 308 q 257 186 254 267 q 259 64 259 105 q 241 16 259 35 q 193 -3 222 -3 q 145 16 163 -3 q 126 64 126 35 q 124 186 126 105 q 121 308 121 267 q 128 467 121 372 q 135 626 135 562 q 154 675 135 656 q 201 694 172 694 q 249 675 231 694 q 268 626 268 656 q 261 467 268 562 q 254 308 254 372 z "},"ˆ":{"ha":772,"x_min":132,"x_max":689,"o":"m 400 1146 q 490 1101 437 1146 q 564 1025 506 1086 l 671 909 q 689 868 689 889 q 670 825 689 844 q 627 806 652 806 q 584 826 604 806 q 414 1002 530 887 q 193 791 242 791 q 150 810 169 791 q 132 853 132 829 q 152 897 132 877 q 359 1125 190 934 q 400 1146 377 1146 z "},"˜":{"ha":772,"x_min":115,"x_max":743,"o":"m 308 1054 q 417 1015 376 1054 l 473 943 q 549 903 505 903 q 607 928 588 903 l 638 988 l 652 1028 q 692 1048 661 1048 q 743 998 743 1048 q 714 916 743 973 q 667 841 687 861 q 570 802 629 802 q 431 841 481 802 q 372 913 413 855 q 308 952 343 952 q 270 944 287 952 q 241 921 254 937 l 212 863 q 168 833 195 833 q 131 847 146 833 q 115 882 115 861 q 117 897 115 889 q 186 1009 136 966 q 308 1054 239 1054 z "},"¯":{"ha":772,"x_min":189,"x_max":659,"o":"m 280 911 q 360 908 307 911 q 441 905 414 905 q 524 907 469 905 q 606 908 578 908 q 659 857 659 908 q 614 808 659 817 l 538 804 l 433 804 q 336 806 401 804 q 237 808 271 808 q 189 860 189 808 q 220 905 189 895 q 280 911 236 911 z "},"˘":{"ha":772,"x_min":144,"x_max":718,"o":"m 388 901 q 616 1010 587 901 q 665 1053 627 1053 q 702 1038 686 1053 q 717 1003 718 1024 l 715 994 q 596 839 707 890 q 388 800 509 800 q 219 865 292 800 q 144 1027 144 931 q 195 1078 144 1078 q 245 1027 245 1078 q 291 937 245 974 q 388 901 334 901 z "},"˙":{"ha":772,"x_min":214,"x_max":380,"o":"m 380 867 q 357 822 380 842 q 309 802 334 802 q 251 835 287 802 q 214 888 214 867 q 239 933 214 913 q 286 952 261 952 q 343 919 307 952 q 380 867 380 886 z "},"˚":{"ha":772,"x_min":178,"x_max":635,"o":"m 403 904 q 488 920 461 906 q 534 1010 534 945 q 497 1072 534 1049 q 425 1091 467 1091 q 280 983 277 1091 q 321 927 281 951 q 403 904 362 903 m 178 983 q 248 1138 178 1081 q 425 1192 315 1192 q 570 1145 509 1192 q 635 1010 635 1093 q 575 858 635 909 q 393 804 514 806 q 239 856 300 803 q 178 983 178 908 z "},"¸":{"ha":772,"x_min":248,"x_max":587,"o":"m 587 -133 q 546 -259 587 -217 q 422 -302 505 -302 q 313 -280 365 -302 q 248 -202 248 -252 q 294 -165 248 -165 q 350 -182 319 -165 q 415 -199 380 -199 q 465 -182 448 -198 q 481 -136 481 -167 q 433 -62 481 -96 q 349 -23 395 -35 q 304 26 304 -13 q 353 78 304 78 q 509 14 435 78 q 587 -133 587 -53 z "},"˝":{"ha":772,"x_min":142,"x_max":644,"o":"m 366 1082 q 402 1066 386 1082 q 418 1030 418 1050 q 404 997 418 1013 q 319 909 378 965 q 234 823 259 852 q 195 802 216 802 q 158 818 174 802 q 142 854 142 833 q 222 960 142 879 l 328 1063 q 366 1082 345 1082 m 593 1061 q 629 1045 614 1061 q 644 1008 644 1029 q 618 966 644 987 l 517 869 q 421 802 446 802 q 386 819 401 802 q 370 855 370 835 q 391 895 370 878 l 491 991 q 593 1061 564 1061 z "},"˛":{"ha":772,"x_min":202,"x_max":557,"o":"m 303 -52 q 321 -103 303 -77 q 363 -132 339 -132 q 480 -107 431 -132 q 507 -99 495 -99 q 542 -115 528 -99 q 557 -153 557 -132 q 478 -218 557 -195 q 363 -233 422 -233 q 248 -175 296 -233 q 202 -52 202 -120 q 252 59 202 3 q 356 115 301 115 q 391 100 377 115 q 405 63 405 84 q 354 8 405 33 q 303 -52 303 -17 z "},"ˇ":{"ha":772,"x_min":193,"x_max":647,"o":"m 413 922 l 562 1055 q 595 1069 578 1069 q 631 1053 616 1069 q 647 1017 647 1037 q 629 979 647 996 q 407 798 436 798 q 362 823 386 798 l 328 865 l 249 956 q 193 1053 193 1025 q 209 1088 193 1074 q 246 1103 225 1103 q 289 1076 273 1103 q 413 922 311 1039 z "},"Ł":{"ha":765,"x_min":-87,"x_max":739,"o":"m 227 506 l 216 279 l 208 185 q 203 92 203 128 l 203 76 l 214 76 q 651 159 371 75 q 673 163 663 163 q 720 141 701 163 q 739 92 739 120 q 695 28 739 48 q 456 -37 619 -8 q 208 -63 305 -63 q 104 -38 135 -63 q 68 62 68 -9 q 77 233 68 127 l 88 403 q -20 341 4 341 q -67 362 -47 341 q -87 412 -87 384 q -57 466 -87 444 l 94 575 l 100 976 q 119 1025 100 1005 q 167 1046 138 1046 q 215 1025 196 1046 q 235 976 235 1005 l 231 669 q 349 721 319 721 q 396 700 377 721 q 415 650 415 678 q 374 591 415 611 q 227 506 292 551 z "},"ł":{"ha":315,"x_min":-59,"x_max":380,"o":"m 229 463 l 221 168 q 217 39 221 124 q 153 -24 209 -24 q 89 41 89 -24 q 94 200 89 103 l 100 359 q 3 313 31 313 q -41 334 -22 313 q -59 380 -59 354 q -23 435 -59 415 q 102 520 45 472 l 105 743 l 107 966 q 125 1012 107 994 q 171 1030 143 1030 q 217 1012 199 1030 q 235 966 235 994 l 231 648 l 267 690 q 314 712 290 712 q 360 693 340 712 q 380 648 380 673 q 229 463 380 604 z "},"Š":{"ha":963,"x_min":91,"x_max":897,"o":"m 92 169 q 111 215 91 197 q 160 233 131 233 q 218 195 193 233 q 280 125 253 144 q 448 87 338 87 q 643 133 553 87 q 758 295 758 191 q 661 430 758 380 q 458 476 579 473 q 276 523 351 480 q 180 680 180 578 q 317 901 180 801 q 587 995 448 995 q 736 972 653 995 q 846 898 846 943 q 785 838 846 838 q 690 853 758 838 q 585 867 622 867 q 405 814 479 865 q 329 688 329 762 q 429 608 329 631 q 574 592 467 600 q 817 494 729 581 q 897 302 897 416 q 747 45 897 141 q 447 -39 618 -39 q 220 9 323 -39 q 92 169 94 67 m 598 1227 l 747 1361 q 781 1375 764 1375 q 817 1359 801 1375 q 832 1322 832 1343 q 814 1285 832 1302 q 592 1103 621 1103 q 547 1128 571 1103 l 513 1171 l 434 1261 q 378 1359 378 1331 q 394 1394 378 1379 q 431 1409 410 1409 q 474 1382 458 1409 q 598 1227 496 1345 z "},"š":{"ha":560,"x_min":29,"x_max":620,"o":"m 553 522 q 501 547 516 522 q 484 621 491 565 q 327 573 433 608 q 217 466 218 530 q 257 455 237 458 q 489 378 413 427 q 600 172 600 307 q 504 5 600 62 q 303 -41 425 -41 q 134 -11 214 -41 q 29 95 29 27 q 51 142 29 122 q 99 163 72 163 q 153 130 120 163 q 227 104 170 115 q 303 96 272 96 q 404 110 360 96 q 467 172 467 130 q 338 297 467 264 l 267 313 q 139 359 177 332 q 84 473 84 397 q 218 675 84 615 q 348 719 258 694 q 476 762 437 745 q 536 774 504 774 q 584 755 566 774 q 603 706 603 736 q 611 648 603 686 q 620 591 620 610 q 601 541 620 560 q 553 522 583 522 m 349 922 l 498 1055 q 531 1069 514 1069 q 567 1053 551 1069 q 583 1017 583 1037 q 565 979 583 996 q 342 798 372 798 q 298 823 321 798 l 264 865 l 184 956 q 128 1053 128 1025 q 144 1088 128 1074 q 182 1103 161 1103 q 224 1076 208 1103 q 349 922 247 1039 z "},"Ž":{"ha":963,"x_min":46,"x_max":937,"o":"m 859 848 l 767 786 q 488 480 644 690 l 250 134 q 216 86 233 108 l 480 96 q 745 104 653 104 q 877 96 834 104 q 934 41 932 85 q 912 -12 935 7 q 861 -29 892 -29 q 802 -27 842 -29 q 743 -24 763 -24 q 434 -30 640 -24 q 124 -35 227 -35 q 46 34 46 -35 q 88 146 46 79 l 161 248 l 406 588 q 687 899 557 788 l 450 885 l 176 885 q 154 884 168 885 q 132 883 139 883 q 60 953 60 883 q 97 1014 60 999 q 171 1023 119 1023 q 310 1014 218 1023 q 450 1004 403 1004 q 606 1010 502 1004 q 763 1017 710 1017 q 937 951 937 1017 q 859 848 937 907 m 518 1293 l 667 1427 q 701 1440 684 1440 q 736 1424 721 1440 q 752 1388 752 1409 q 734 1351 752 1368 q 512 1169 541 1169 q 467 1194 491 1169 l 433 1236 l 354 1327 q 298 1425 298 1397 q 314 1460 298 1445 q 351 1475 330 1475 q 394 1448 378 1475 q 518 1293 416 1411 z "},"ž":{"ha":747,"x_min":60,"x_max":682,"o":"m 631 549 q 476 338 570 476 q 316 112 367 178 q 440 115 387 115 q 519 105 467 115 q 597 95 571 95 q 646 76 627 95 q 665 26 665 56 q 646 -23 665 -4 q 597 -42 627 -42 q 519 -32 571 -42 q 440 -22 467 -22 q 151 -50 288 -22 q 125 -52 136 -52 q 60 5 60 -52 q 94 71 60 39 q 479 569 271 231 q 348 564 389 564 q 142 579 248 564 q 81 646 81 588 q 100 696 81 676 q 146 716 118 716 q 246 708 179 716 q 348 701 313 701 q 486 707 394 701 q 625 713 578 713 q 682 666 682 713 q 631 549 682 611 m 344 922 l 493 1055 q 526 1069 509 1069 q 562 1053 547 1069 q 578 1017 578 1037 q 560 979 578 996 q 338 798 367 798 q 293 823 317 798 l 259 865 l 180 956 q 123 1053 123 1025 q 140 1088 123 1074 q 177 1103 156 1103 q 220 1076 203 1103 q 344 922 242 1039 z "},"¦":{"ha":562,"x_min":222,"x_max":333,"o":"m 328 1099 l 326 789 q 325 635 328 738 q 273 594 322 594 q 225 654 225 594 q 226 876 225 728 q 227 1099 227 1025 q 278 1149 227 1149 q 328 1099 328 1149 m 325 435 q 324 407 325 426 q 323 379 323 389 q 328 200 323 319 q 333 21 333 81 q 282 -30 333 -30 q 231 21 231 -30 q 227 200 231 81 q 222 379 222 319 q 277 486 222 486 q 325 435 325 486 z "},"Ð":{"ha":1002,"x_min":-30,"x_max":933,"o":"m 428 -67 q 309 -50 374 -67 q 199 -4 237 -32 l 193 -4 q 124 66 124 -4 q 129 235 124 132 l 136 404 q 105 402 127 404 q 71 401 83 401 q -30 471 -30 401 q 71 541 -30 541 q 106 539 83 541 q 137 538 128 538 l 134 752 l 131 966 q 159 1025 131 995 q 216 1055 188 1055 q 325 1010 233 1055 q 446 954 432 958 q 778 747 647 880 q 933 398 933 590 q 879 176 933 282 q 730 5 824 68 q 428 -67 624 -67 m 268 878 l 273 538 q 362 533 302 538 q 451 527 421 527 q 500 508 481 527 q 519 460 519 490 q 500 412 519 431 q 452 393 481 393 q 361 398 421 393 q 272 404 302 404 l 262 118 q 427 69 352 69 q 652 117 581 69 q 758 237 719 161 q 796 395 796 313 q 706 623 796 523 q 498 773 635 703 q 268 878 462 793 z "},"ð":{"ha":707,"x_min":125,"x_max":672,"o":"m 247 243 q 285 143 247 191 q 378 93 326 93 q 519 189 475 93 q 551 370 551 259 q 513 517 551 408 q 406 486 477 509 q 247 243 247 423 m 311 868 l 250 919 q 210 981 210 954 q 228 1024 210 1005 q 271 1043 247 1043 q 412 925 313 1043 q 574 987 530 987 q 620 969 602 987 q 637 923 637 951 q 618 884 637 899 l 574 859 l 491 821 q 672 370 672 557 q 608 101 672 208 q 378 -28 530 -28 q 199 58 275 -28 q 125 243 125 140 q 227 496 125 387 q 467 627 323 599 q 391 766 431 703 l 312 718 q 231 681 249 681 q 186 701 205 681 q 168 748 168 722 q 199 801 168 779 q 311 868 217 813 z "},"Ý":{"ha":882,"x_min":20,"x_max":831,"o":"m 795 867 q 751 788 779 842 l 635 500 q 507 216 567 338 l 422 65 l 387 -8 q 326 -47 364 -47 q 278 -28 300 -47 q 256 21 256 -8 q 320 165 256 44 l 404 318 q 246 565 282 475 q 144 749 216 642 q 30 926 47 895 q 20 962 20 944 q 41 1011 20 991 q 90 1031 62 1031 q 145 1000 123 1031 l 199 916 q 294 770 271 809 q 374 616 345 687 q 469 462 396 559 l 625 840 q 698 985 651 887 q 761 1031 717 1031 q 809 1012 788 1031 q 831 963 831 993 q 795 867 831 932 m 452 1172 q 409 1191 427 1172 q 390 1234 390 1210 q 411 1278 390 1257 q 500 1386 440 1307 q 600 1483 545 1444 q 635 1496 618 1496 q 678 1477 660 1496 q 696 1433 696 1457 q 671 1385 696 1406 q 579 1287 623 1348 q 492 1189 533 1223 q 452 1172 473 1172 z "},"Þ":{"ha":723,"x_min":68,"x_max":686,"o":"m 219 793 l 197 395 q 284 384 267 384 q 476 441 398 384 q 562 612 562 505 q 480 743 562 688 q 318 793 405 793 l 219 793 m 220 930 l 220 916 l 334 921 q 545 858 435 926 q 686 612 686 769 q 558 344 686 444 q 284 255 444 255 q 193 266 259 255 l 192 48 q 174 2 192 21 q 130 -16 157 -16 q 85 2 103 -16 q 68 48 68 21 l 68 248 q 80 528 68 347 q 95 809 94 724 l 95 903 q 103 1000 95 970 q 170 1052 117 1053 q 223 966 223 1051 q 220 930 223 947 z "},"þ":{"ha":743,"x_min":76,"x_max":684,"o":"m 382 -24 q 233 -2 315 -24 l 232 -326 q 213 -375 232 -356 q 165 -394 195 -394 q 118 -375 136 -394 q 99 -326 99 -356 l 101 -55 l 101 216 q 91 486 99 364 q 76 891 76 713 q 94 973 76 940 q 153 1013 114 1013 q 196 995 178 1013 q 214 949 214 976 l 213 620 q 429 700 330 700 q 633 576 568 700 q 684 318 684 479 q 605 77 684 172 q 382 -24 522 -24 m 429 564 q 317 536 367 564 q 226 465 281 517 q 235 141 235 311 q 382 113 309 113 q 512 176 467 113 q 551 318 551 231 q 429 564 551 564 z "},"−":{"ha":667,"x_min":33,"x_max":619,"o":"m 425 496 q 467 498 439 496 q 508 500 494 500 q 619 436 619 500 q 603 392 619 411 q 561 374 586 374 q 536 376 553 374 q 511 379 520 379 q 325 375 449 379 q 138 370 200 370 q 33 433 33 370 q 67 486 33 475 q 138 491 81 491 q 257 495 177 491 q 376 500 336 500 q 400 498 384 500 q 425 496 417 496 z "},"¹":{"ha":904,"x_min":273,"x_max":650,"o":"m 351 702 l 410 702 l 410 1009 q 328 980 362 980 q 279 1026 279 980 q 317 1078 279 1065 q 397 1130 335 1085 q 471 1169 452 1169 q 509 1141 501 1169 q 511 1088 511 1133 l 511 702 l 541 703 q 608 703 596 704 q 650 666 650 696 q 635 628 650 644 q 599 612 621 612 l 322 612 q 287 628 301 612 q 273 664 273 643 q 300 701 273 694 q 351 702 307 702 z "},"²":{"ha":904,"x_min":258,"x_max":667,"o":"m 374 716 l 431 715 l 488 713 q 554 720 510 713 q 618 727 597 727 q 653 711 640 727 q 667 675 667 696 q 486 612 667 612 q 417 614 463 612 q 349 615 372 615 q 288 631 313 615 q 258 684 258 650 q 330 837 258 773 l 463 927 q 535 1025 535 975 q 509 1069 535 1044 q 463 1093 484 1093 q 390 1065 416 1093 l 357 1013 q 315 985 340 985 q 278 999 294 985 q 262 1034 262 1013 q 332 1144 262 1099 q 466 1185 395 1185 q 583 1136 530 1185 q 636 1025 636 1086 q 589 884 636 937 q 483 806 564 856 q 374 716 407 760 z "},"³":{"ha":904,"x_min":281,"x_max":642,"o":"m 578 891 q 642 734 642 844 q 566 614 642 657 q 419 580 504 580 q 281 646 281 580 q 296 683 281 667 q 331 699 311 699 q 368 690 338 699 q 419 682 397 682 q 491 692 456 682 q 541 734 541 707 q 498 820 541 803 l 418 829 q 374 877 374 836 q 445 933 374 915 q 516 994 516 952 q 412 1052 516 1052 q 384 1046 403 1052 q 355 1040 365 1040 q 312 1080 312 1040 q 346 1136 312 1116 q 412 1154 375 1154 q 552 1117 496 1154 q 617 994 617 1074 q 578 891 617 932 z "},"½":{"ha":904,"x_min":110,"x_max":821,"o":"m 351 702 l 410 702 l 410 1009 q 328 980 362 980 q 279 1026 279 980 q 317 1078 279 1065 q 397 1130 335 1085 q 471 1169 452 1169 q 509 1139 502 1169 q 511 1083 511 1132 l 511 702 l 541 703 q 608 703 596 704 q 650 666 650 696 q 635 628 650 644 q 599 612 621 612 l 322 612 q 287 628 301 612 q 273 664 273 643 q 300 701 273 694 q 351 702 307 702 m 345 503 l 660 493 q 773 487 699 494 q 821 437 821 478 q 768 386 821 386 l 629 393 q 345 401 486 401 q 253 399 315 401 q 161 397 191 397 q 110 448 110 397 q 161 498 110 498 q 253 500 191 498 q 345 503 315 503 m 374 -139 l 431 -140 l 488 -142 q 554 -135 510 -142 q 618 -128 597 -128 q 653 -144 640 -128 q 667 -180 667 -159 q 486 -243 667 -243 q 418 -241 463 -243 q 349 -240 372 -240 q 288 -224 313 -240 q 258 -172 258 -205 q 330 -18 258 -82 l 463 72 q 535 170 535 119 q 509 214 535 189 q 463 238 484 238 q 390 210 416 238 l 357 158 q 315 130 340 130 q 278 143 293 130 q 262 178 262 157 q 332 290 262 243 q 466 330 395 330 q 583 280 530 330 q 636 170 636 231 q 589 29 636 82 q 483 -49 564 1 q 374 -139 407 -95 z "},"¼":{"ha":904,"x_min":110,"x_max":821,"o":"m 351 702 l 410 702 l 410 1009 q 328 980 362 980 q 279 1026 279 980 q 317 1078 279 1065 q 397 1130 335 1085 q 471 1169 452 1169 q 509 1141 501 1169 q 511 1088 511 1133 l 511 702 l 541 703 q 608 703 596 704 q 650 666 650 696 q 635 628 650 644 q 599 612 621 612 l 322 612 q 287 628 301 612 q 273 664 273 643 q 300 701 273 694 q 351 702 307 702 m 345 503 l 660 493 q 773 487 699 494 q 821 437 821 478 q 768 386 821 386 l 629 393 q 345 401 486 401 q 253 399 315 401 q 161 397 191 397 q 110 448 110 397 q 161 498 110 498 q 253 500 191 498 q 345 503 315 503 m 456 12 l 458 165 q 322 13 378 72 q 371 15 343 15 l 456 12 m 551 208 l 554 10 l 593 11 q 679 -39 679 12 q 635 -71 679 -71 q 595 -68 619 -71 l 555 -64 l 557 -181 q 506 -232 557 -232 q 455 -181 455 -232 l 456 -65 l 237 -76 q 183 -24 183 -76 q 212 38 183 8 q 333 175 258 83 q 452 313 412 273 q 515 340 477 340 q 552 326 536 340 q 568 291 568 311 q 560 249 568 277 q 551 208 551 222 z "},"¾":{"ha":904,"x_min":110,"x_max":821,"o":"m 578 891 q 642 734 642 844 q 566 614 642 657 q 419 580 504 580 q 281 646 281 580 q 296 683 281 667 q 331 699 311 699 q 368 690 338 699 q 419 682 397 682 q 491 692 456 682 q 541 734 541 707 q 498 820 541 803 l 418 829 q 374 877 374 836 q 445 933 374 915 q 516 994 516 952 q 412 1052 516 1052 q 384 1046 403 1052 q 355 1040 365 1040 q 312 1080 312 1040 q 346 1136 312 1116 q 412 1154 375 1154 q 552 1117 496 1154 q 617 994 617 1074 q 578 891 617 932 m 345 503 q 660 493 481 503 q 773 487 699 492 q 821 437 821 481 q 768 386 821 386 l 629 393 q 345 401 472 401 q 253 399 315 401 q 161 397 191 397 q 110 448 110 397 q 161 498 110 498 q 253 500 191 498 q 345 503 315 503 m 456 12 l 458 165 q 322 13 378 72 q 371 15 342 15 l 456 12 m 551 208 l 554 10 l 587 11 q 679 -39 679 12 q 635 -71 679 -71 q 595 -68 620 -71 q 555 -64 565 -64 l 557 -181 q 506 -232 557 -232 q 455 -181 455 -232 l 456 -65 l 237 -76 q 183 -24 183 -76 q 212 38 183 11 q 336 172 267 88 l 452 313 q 515 340 475 340 q 552 326 536 340 q 568 291 568 312 q 560 253 568 281 q 551 208 551 226 z "},"ý":{"ha":723,"x_min":-3,"x_max":694,"o":"m 686 605 l 451 98 q 318 -212 364 -87 l 273 -344 q 212 -393 256 -393 q 163 -374 184 -393 q 142 -328 142 -355 q 289 65 142 -260 l 46 532 l 16 582 q -3 634 -3 613 q 19 683 -3 662 q 66 704 40 704 q 115 680 98 704 q 362 224 230 520 l 463 458 q 567 667 517 580 q 624 705 589 705 q 673 686 652 705 q 694 639 694 666 q 686 605 694 624 m 290 805 q 247 824 265 805 q 228 867 228 843 q 249 911 228 890 q 338 1019 278 940 q 437 1116 382 1078 q 473 1129 456 1129 q 516 1110 498 1129 q 534 1066 534 1090 q 509 1019 534 1039 q 417 920 461 981 q 330 822 371 857 q 290 805 311 805 z "},"×":{"ha":667,"x_min":45,"x_max":577,"o":"m 408 433 q 500 349 454 398 q 561 245 561 282 q 546 197 561 218 q 503 174 529 174 q 398 263 454 174 q 333 326 378 296 q 233 200 284 266 q 168 152 216 152 q 120 170 140 152 q 100 216 100 188 q 135 294 100 255 q 192 360 191 357 q 226 415 203 378 q 155 484 178 463 q 78 545 115 521 q 45 600 45 567 q 65 649 45 628 q 113 671 85 671 q 307 524 159 671 q 418 633 359 587 q 456 665 432 643 q 507 692 479 692 q 556 671 534 692 q 577 623 577 650 q 530 550 577 590 q 457 490 494 520 q 408 433 433 466 z "},"­":{"ha":578,"x_min":75,"x_max":514,"o":"m 460 322 q 132 313 368 313 q 75 366 75 313 q 132 418 75 418 q 293 423 186 418 q 454 428 400 428 q 514 375 514 428 q 460 322 514 328 z "}}}
